<?xml version="1.0" encoding="utf-8" ?>
<svg baseProfile="full" height="200mm" version="1.1" viewBox="0,0,200,200" width="200mm" xmlns="http://www.w3.org/2000/svg" xmlns:ev="http://www.w3.org/2001/xml-events" xmlns:xlink="http://www.w3.org/1999/xlink"><defs /><rect fill="#1a1a1a" height="200" width="200" x="0" y="0" /><text alignment-baseline="middle" fill="#e1ed5e" style="dominant-baseline: central; font-size:9.0px; font-family:Arial;" text-anchor="middle" x="100.0" y="100.0">2017</text><line stroke="#e1ed5e" stroke-width="0.3" x1="100.0" x2="100.0" y1="15.0" y2="10.0" /><path d="M 100.0 14.0 a86.0,86.0 0 0,1 42.46469731375804,11.215312516191453" fill="none" id="id13" stroke="none" /><text fill="#e1ed5e" style="font-size:6.75px; font-family:Arial;" text-anchor="middle"><textPath startOffset="22.20632615414155" xlink:href="#id13">January</textPath></text><path d="M 100.0 79.0 l 0.0 -10.749422701676693 a31.749422701676693,31.749422701676693 0 0,0 0.546514120706104,0.004704019577583085 l -0.18503364143357562 10.747830058707668" fill="#ff700a" stroke="none" /><path d="M 101.08401301168833 79.027996857942 l 0.4349794748976739 -8.41538876002679 a29.426622996548943,29.426622996548943 0 0,0 0.5056305881735181,0.03050101789586809 l -0.5797721119108039 8.406654472750619" fill="#ff4f07" stroke="none" /><path d="M 101.80526077348638 79.07773832637324 l 1.0242557485054946 -11.870720898434305 a32.91482750554415,32.91482750554415 0 0,0 0.5640580650192494,0.05356410987518126 l -1.228438940614988 11.851331244043946" fill="#ff800b" stroke="none" /><path d="M 102.52436894288641 79.15227682838746 l 1.544095791619929 -12.752051044225178 a33.84519511911839,33.84519511911839 0 0,0 0.5777620933800989,0.07501010160384504 l -1.763372613507874 12.723582619457195" fill="#ff8d0d" stroke="none" /><path d="M 104.307194497241 79.44645832069477 l 2.708396660428711 -12.924223338386616 a34.20495972620586,34.20495972620586 0 0,0 0.5752252570164357,0.12572196138273617 l -2.930464641598675 12.875687878908009" fill="#ff920d" stroke="none" /><path d="M 106.0581310904928 79.89281104454417 l 1.6233615675637092 -5.388004533816273 a26.627245830374537,26.627245830374537 0 0,0 0.43771974976537276,0.13600165696266378 l -1.7158666900398003 5.359262741971089" fill="#ff2603" stroke="none" /><line stroke="#e1ed5e" stroke-width="0.3" x1="143.23703022742887" x2="145.7803849466894" y1="26.81831364943548" y2="22.513508569990506" /><path d="M 143.74570117128098 25.957352633546492 a86.0,86.0 0 0,1 28.547481713284135,27.462654790039103" fill="none" id="id14" stroke="none" /><text fill="#e1ed5e" style="font-size:6.75px; font-family:Arial;" text-anchor="middle"><textPath startOffset="19.985693538727396" xlink:href="#id14">February</textPath></text><path d="M 112.19680574252982 82.90503203632743 l 8.619892556703254 -12.081588427149743 a35.841405816570976,35.841405816570976 0 0,0 0.4991422380724163,0.36264806348338485 l -8.82658011112946 11.931421128849685" fill="#ffa90f" stroke="none" /><path d="M 112.48926042617603 83.11751280151076 l 3.792786024507486 -5.126937810597149 a27.377359731223414,27.377359731223414 0 0,0 0.3764437105871964,0.2835295983177022 l -3.880475888853065 5.0608916227736" fill="#ff3104" stroke="none" /><path d="M 112.77801427241765 83.33499621200491 l 4.103139086675135 -5.351287529057857 a27.743295083507128,27.743295083507128 0 0,0 0.3764731386383317,0.29384325622519347 l -4.194644780472897 5.279865883609439" fill="#ff3705" stroke="none" /><path d="M 113.06298171725822 83.55741782278167 l 3.6964316303232203 -4.652757093256921 a26.942369507739027,26.942369507739027 0 0,0 0.3606385001545297,0.2916112530650435 l -3.775973529042241 4.588439742927747" fill="#ff2b04" stroke="none" /><path d="M 113.6212207817346 84.01681056812373 l 2.881799979223842 -3.381514455332553 a25.442905708191155,25.442905708191155 0 0,0 0.33088644425488795,0.28694146384867314 l -2.9395802221254943 3.331407998064209" fill="#ff1502" stroke="none" /><path d="M 113.89432698308785 84.25364557470407 l 8.03233071717326 -9.10299048581143 a33.14013066382807,33.14013066382807 0 0,0 0.42449195324775996,0.38111306689664187 l -8.18783365801701 8.96337841014549" fill="#ff840c" stroke="none" /><path d="M 114.16331599549186 84.49514656593476 l 7.399932365984942 -8.100847767084483 a31.971906560239617,31.971906560239617 0 0,0 0.40313851415234614,0.3746733132821469 l -7.538278763932135 7.972269867727695" fill="#ff730a" stroke="none" /><path d="M 114.68862486808459 84.99185889309783 l 8.742120265319244 -8.932284382896716 a33.498414740687956,33.498414740687956 0 0,0 0.4086235527481666,0.4068687933525285 l -8.894579618234733 8.78047973889407" fill="#ff890c" stroke="none" /><path d="M 114.94478906791727 85.2469230424477 l 6.775529651471204 -6.688612995610701 a30.52078493943739,30.52078493943739 0 0,0 0.3658653461470634,0.37705639967642357 l -6.889659261321376 6.5709924003841635" fill="#ff5f08" stroke="none" /><path d="M 115.19652480421416 85.50635884689758 l 8.680840264245306 -8.279326051077401 a32.99600881766062,32.99600881766062 0 0,0 0.38846150591792644,0.41438364981802295 l -8.822069092133695 8.128672984381323" fill="#ff820b" stroke="none" /><path d="M 115.4437574822437 85.77008943001954 l 6.923070382041093 -6.37893158574858 a30.41380219095109,30.41380219095109 0 0,0 0.35143345308001095,0.3880615964571727 l -7.03184747573714 6.2588172020218575" fill="#ff5d08" stroke="none" /><path d="M 115.68641384162765 86.03803664274999 l 12.727082906824986 -11.327959786335423 a38.038230901065674,38.038230901065674 0 0,0 0.43111468807419756,0.4928386141781094 l -12.920189458477031 11.107205615954365" fill="#ffc612" stroke="none" /><path d="M 116.38621287248628 86.86637796730983 l 7.816386910274054 -6.264868651448816 a31.017209369430674,31.017209369430674 0 0,0 0.33032725270646834,0.4194820656794949 l -7.923068243574487 6.1293941918162815" fill="#ff6609" stroke="none" /><path d="M 116.60985879189232 87.15038557335679 l 8.51214962365414 -6.585115621768069 a31.7619904742352,31.7619904742352 0 0,0 0.3308148334803694,0.43531354318126103 l -8.624240397358625 6.437617302705775" fill="#ff700a" stroke="none" /><path d="M 116.82858285166822 87.43820079747576 l 11.521889552172002 -8.60058534124869 a35.377899953211255,35.377899953211255 0 0,0 0.360075233845413,0.49114221430445654 l -11.668227398531041 8.40098068327274" fill="#ffa20f" stroke="none" /><path d="M 117.04232023915458 87.72973835380427 l 8.641667031514887 -6.221894322369064 a31.648491820079485,31.648491820079485 0 0,0 0.3145067069090776,0.44484743284540373 l -8.747486358227846 6.072220389191867" fill="#ff6f0a" stroke="none" /><path d="M 117.45458315368197 88.32363383020206 l 11.634304504751249 -7.78284982988832 a34.997492374845855,34.997492374845855 0 0,0 0.33064858291451354,0.5036004762741673 l -11.766549723023687 7.581431289636479" fill="#ff9d0e" stroke="none" /><path d="M 117.65298651832404 88.62581576622439 l 10.494866117190375 -6.7620592471321705 a33.4846970359507,33.4846970359507 0 0,0 0.30801521025764383,0.48720609261485165 l -10.609708923693974 6.580405506803113" fill="#ff880c" stroke="none" /><line stroke="#e1ed5e" stroke-width="0.3" x1="172.23445277983987" x2="176.4835382374775" y1="55.19839476539836" y2="52.563006222186495" /><path d="M 173.08426987136738 54.67131705675599 a86.0,86.0 0 0,1 12.851231095245387,41.99856678651699" fill="none" id="id15" stroke="none" /><text fill="#e1ed5e" style="font-size:6.75px; font-family:Arial;" text-anchor="middle"><textPath startOffset="22.20632615414155" xlink:href="#id15">March</textPath></text><path d="M 117.84615892207809 88.93136811851018 l 6.785249564312497 -4.208380636939258 a28.98436467324534,28.98436467324534 0 0,0 0.2593192485149368,0.4262526611531601 l -6.856684611113657 4.090960202579017" fill="#ff4906" stroke="none" /><path d="M 118.03404312379186 89.2402003453031 l 4.1399832473260885 -2.470072296559088 a25.820862831316543,25.820862831316543 0 0,0 0.2244451765088356,0.38364956162651664 l -4.181888098305251 2.398443322578676" fill="#ff1a02" stroke="none" /><path d="M 118.21658344932153 89.55222093294921 l 12.037735519989793 -6.904016965109191 a34.87705036035178,34.87705036035178 0 0,0 0.2942001412188245,0.5233492234943564 l -12.154793302501051 6.695784231680041" fill="#ff9b0e" stroke="none" /><path d="M 118.3937258080291 89.86733742301442 l 5.636462082825793 -3.1049918330475963 a27.435112982257976,27.435112982257976 0 0,0 0.22430412838476402,0.4156014840037525 l -5.689074310429022 3.007509365711385" fill="#ff3204" stroke="none" /><path d="M 118.56541770881063 90.18545643968196 l 5.08802207499042 -2.6897651899937993 a26.755241559907994,26.755241559907994 0 0,0 0.21173660765614868,0.4090077315830547 l -5.133568115806685 2.6017847361504" fill="#ff2803" stroke="none" /><path d="M 118.73160827565052 90.50648371742162 l 11.039412266441529 -5.59497286935009 a33.37628153353111,33.37628153353111 0 0,0 0.2553126396766591,0.514694702199696 l -11.134084919071595 5.404118578651444" fill="#ff870c" stroke="none" /><path d="M 119.04729006885535 91.15688171328212 l 7.428086950123739 -3.4486507690338954 a29.189607308373013,29.189607308373013 0 0,0 0.20765998574384198,0.45755125221234627 l -7.486349252830928 3.3202775079794864" fill="#ff4c07" stroke="none" /><path d="M 119.47837535516314 92.15188598940014 l 11.302314005184284 -4.553862798047657 a33.18523566679066,33.18523566679066 0 0,0 0.208919152564075,0.5316764553742679 l -11.379026707630059 4.358637337777605" fill="#ff840c" stroke="none" /><path d="M 119.7369772167798 92.82701384747503 l 8.458124240232722 -3.073926031588323 a29.999382584982634,29.999382584982634 0 0,0 0.17220634039178612,0.4868505138427698 l -8.509783661434318 2.9278778913189387" fill="#ff5708" stroke="none" /><path d="M 119.85752413597 93.16781622104841 l 4.870998065389214 -1.6759165816333579 a26.151244368268614,26.151244368268614 0 0,0 0.14278916430959224,0.42692142673780187 l -4.899124523470577 1.591822051973242" fill="#ff1f03" stroke="none" /><path d="M 119.97218684219823 93.5106431181261 l 3.850050149291047 -1.2509571249891027 a25.048182293402437,25.048182293402437 0 0,0 0.12970726028484914,0.4112074608081526 l -3.871012893344102 1.1844994977545311" fill="#ff0f01" stroke="none" /><path d="M 120.18372546131832 94.20196356495316 l 5.533503578837035 -1.5895705391478152 a26.757290713167865,26.757290713167865 0 0,0 0.12335522499221155,0.4437743765014009 l -5.560045574395609 1.4940848592274625" fill="#ff2803" stroke="none" /><path d="M 120.28053869075195 94.5502522615342 l 10.847832541095862 -2.9150089038340488 a32.232664321036665,32.232664321036665 0 0,0 0.13937353114015946,0.5370630695245127 l -10.896402404106324 2.7278494087606853" fill="#ff770b" stroke="none" /><path d="M 120.73433829027371 96.67025291283417 l 4.54338872034716 -0.7296271115888278 a25.601601545781996,25.601601545781996 0 0,0 0.06613028582733253,0.43571595793555845 l -4.555274899613792 0.6513120412611872" fill="#ff1702" stroke="none" /><path d="M 120.78858239683441 97.02765380044208 l 10.560032079925515 -1.509870688669751 a31.667426448097032,31.667426448097032 0 0,0 0.07250936015077146,0.5402789547795 l -10.584457439134123 1.3278733918255867" fill="#ff6f0a" stroke="none" /><path d="M 120.87857604477298 97.74499172005257 l 10.031128971645487 -1.0834205761816869 a31.08946721044671,31.08946721044671 0 0,0 0.0528859585602505,0.5325543853790388 l -10.048292055887966 0.9105906600982132" fill="#ff6709" stroke="none" /><path d="M 120.94382443527127 98.46500227214037 l 11.237270481215509 -0.8235928786225295 a32.26741110893337,32.26741110893337 0 0,0 0.03583128366085161,0.5542940989318396 l -11.249782355880777 0.6300397154376547" fill="#ff770b" stroke="none" /><path d="M 120.98425023603335 99.18683210126433 l 7.693079361181133 -0.29811716447205905 a28.69885341470949,28.69885341470949 0 0,0 0.014880089750095759,0.4937977368289782 l -7.697071145386874 0.16564928021808178" fill="#ff4506" stroke="none" /><line stroke="#e1ed5e" stroke-width="0.3" x1="184.98032266829074" x2="189.97916517819016" y1="98.17113171792111" y2="98.06355123074" /><path d="M 185.9800911702706 98.14961562048488 a86.0,86.0 0 0,1 -9.607161424134198,41.387399972396054" fill="none" id="id16" stroke="none" /><text fill="#e1ed5e" style="font-size:6.75px; font-family:Arial;" text-anchor="middle"><textPath startOffset="21.466115282336823" xlink:href="#id16">April</textPath></text><path d="M 120.99513854157772 99.54816195383933 l 5.185573093142328 -0.11159913091255491 a26.186773821012647,26.186773821012647 0 0,0 0.005819689858698036,0.45074139307940697 l -5.186725790118742 0.022321479772685244" fill="#ff2003" stroke="none" /><path d="M 120.92983693683757 101.71520430193887 l 9.298089926961085 0.7619803198021399 a30.329259900850708,30.329259900850708 0 0,0 -0.04711925470870307,0.519957049326371 l -9.283596075975307 -0.9219187576770813" fill="#ff5c08" stroke="none" /><path d="M 120.81339534386255 102.79330883721812 l 10.3846606283609 1.3936968872916382 a31.477765381028313,31.477765381028313 0 0,0 -0.0766947494093851,0.5364028987399665 l -10.359131827934913 -1.572245258012014" fill="#ff6c0a" stroke="none" /><path d="M 120.76222939487914 103.15116336523771 l 3.79973233304144 0.5766999823507668 a24.843247152136318,24.843247152136318 0 0,0 -0.0678081591775891,0.42224147192678985 l -3.7892424195025622 -0.6420206839707616" fill="#ff0c01" stroke="none" /><path d="M 120.64145759157962 103.86396538481128 l 5.791691365293479 1.0841722226115238 a26.89229312569372,26.89229312569372 0 0,0 -0.08909041119964757,0.4542700873335674 l -5.772171021118168 -1.1837060370130361" fill="#ff2a04" stroke="none" /><path d="M 120.49622156327973 104.57218783832717 l 3.284978717260213 0.7327955395998047 a24.36572049875059,24.36572049875059 0 0,0 -0.0948400097267715,0.40856827970926857 l -3.271878141602889 -0.7892324766576382" fill="#ff0500" stroke="none" /><path d="M 120.32669344350535 105.2749913415812 l 4.185072584086941 1.086070477045599 a25.323699991348406,25.323699991348406 0 0,0 -0.11312690525391016,0.4209872986915247 l -4.1657576024912535 -1.1579487089126719" fill="#ff1302" stroke="none" /><path d="M 120.23288151984713 105.62410040840565 l 13.24334844320951 3.6812315297280405 a34.745462653680434,34.745462653680434 0 0,0 -0.1651358575064931,0.5748595837693331 l -13.178019948816916 -3.9086485890019556" fill="#ff9a0e" stroke="none" /><path d="M 120.02730092923936 106.31721596034902 l 11.648770217197562 3.674374165271687 a33.21453531983452,33.21453531983452 0 0,0 -0.1766819511485749,0.5437711323659752 l -11.583796015032739 -3.874344197615457" fill="#ff850c" stroke="none" /><path d="M 119.79798401119884 107.00284435728193 l 2.8832604359652856 1.0198525295884955 a24.058314883021495,24.058314883021495 0 0,0 -0.1414580099595253,0.38923168961079696 l -2.8652781650005337 -1.0693320162054234" fill="#ff0000" stroke="none" /><path d="M 119.67450827220406 107.3425965602758 l 2.9541470325962176 1.1024981941091203 a24.153170937042727,24.153170937042727 0 0,0 -0.14872110324359453,0.38826387117125033 l -2.9347316497591165 -1.1531856321135143" fill="#ff0100" stroke="none" /><path d="M 119.41010516605496 108.01547362559984 l 10.422856658161816 4.3041566200789285 a32.27659989211098,32.27659989211098 0 0,0 -0.21648225834534568,0.5117001109030717 l -10.347223418624163 -4.482931256648164" fill="#ff780b" stroke="none" /><path d="M 119.26925614724726 108.34839909993367 l 7.77955849038435 3.3704912427708895 a29.478310062913863,29.478310062913863 0 0,0 -0.20572900698932658,0.46386459988924905 l -7.72038839866375 -3.5039041791528263" fill="#ff5007" stroke="none" /><path d="M 119.12269723197855 108.67885076344098 l 11.93003661899527 5.41445624341631 a34.10122552063119,34.10122552063119 0 0,0 -0.24719391052901926,0.5324336918768562 l -11.83506809162642 -5.619010002571996" fill="#ff910d" stroke="none" /><path d="M 118.97047184881838 109.00673069616215 l 5.8104447116683 2.7586615219692407 a27.432066630574326,27.432066630574326 0 0,0 -0.20619344676020593,0.4248195728075812 l -5.76209800829338 -2.8582700507420973" fill="#ff3204" stroke="none" /><line stroke="#e1ed5e" stroke-width="0.3" x1="174.80103733775053" x2="179.2010983576182" y1="140.37084112569926" y2="142.7455964860345" /><path d="M 175.68104954172406 140.8457921977663 a86.0,86.0 0 0,1 -30.038265399797805,32.042727171017184" fill="none" id="id17" stroke="none" /><text fill="#e1ed5e" style="font-size:6.75px; font-family:Arial;" text-anchor="middle"><textPath startOffset="22.206326154141568" xlink:href="#id17">May</textPath></text><path d="M 117.14729908036423 112.12312394758627 l 6.111937155997234 4.321133687279133 a28.485183507583372,28.485183507583372 0 0,0 -0.2865069702233721,0.3979331230325064 l -6.036650393398259 -4.42570041576277" fill="#ff4206" stroke="none" /><path d="M 116.71984013943494 112.70617746262583 l 4.55608348440284 3.462377917766239 a26.722408370807138,26.722408370807138 0 0,0 -0.28146735995892197,0.3638345049288564 l -4.49580930722585 -3.540290416808348" fill="#ff2803" stroke="none" /><path d="M 116.27256486870786 113.27417163493432 l 12.82311498061697 10.46031959439492 a37.54843085682161,37.54843085682161 0 0,0 -0.41286108964575313,0.49731777885080347 l -12.641157891077674 -10.679498630359493" fill="#ffbf11" stroke="none" /><path d="M 116.0416608686014 113.55231037782055 l 4.246714573303521 3.5877079346610614 a26.55933745077041,26.55933745077041 0 0,0 -0.29804318148149456,0.3466915536358597 l -4.184328882251248 -3.660276587458449" fill="#ff2503" stroke="none" /><path d="M 115.80600337817218 113.82643327865902 l 11.084845741395332 9.696561260975372 a35.727426978205614,35.727426978205614 0 0,0 -0.4088938523355681,0.45939657775297793 l -10.916293039411427 -9.885932008469217" fill="#ffa70f" stroke="none" /><path d="M 115.56566222782051 114.09645910891815 l 12.700738353888683 11.501948085361263 a38.134864005654805,38.134864005654805 0 0,0 -0.4448224723228474,0.48276694020119393 l -12.500869473570113 -11.718866280363793" fill="#ffc712" stroke="none" /><path d="M 115.07121518719521 114.62390073753431 l 12.370645762203148 12.003484353362598 a38.23706799880233,38.23706799880233 0 0,0 -0.46241247088975346,0.4684213916666487 l -12.162192666257859 -12.214646239009912" fill="#ffc812" stroke="none" /><path d="M 114.81725581225074 114.88116024355365 l 8.250976732967882 8.286561863068554 a32.69383275741703,32.69383275741703 0 0,0 -0.40221205951888134,0.39364915465616857 l -8.107114721073206 -8.427361120647294" fill="#ff7d0b" stroke="none" /><path d="M 114.55890576462653 115.13401014063108 l 8.385281972295651 8.716516505595276 a33.09506567767291,33.09506567767291 0 0,0 -0.41394703866701793,0.3914127623310867 l -8.233999099237826 -8.859563904672283" fill="#ff830c" stroke="none" /><path d="M 114.29624159901734 115.38237550388516 l 11.154151764611543 12.001570460474834 a37.38452913896914,37.38452913896914 0 0,0 -0.47514036524571507,0.4340294581826353 l -10.945911849898964 -12.191792685244051" fill="#ffbd11" stroke="none" /><path d="M 114.0293411484842 115.62618273729858 l 3.475296138308262 3.8708597893993333 a26.202041787426257,26.202041787426257 0 0,0 -0.338203037902049,0.2984248587556102 l -3.4081507474996253 -3.930107789927232" fill="#ff2003" stroke="none" /><path d="M 113.75828350139079 115.86535959552629 l 5.5518390365599055 6.402101157647982 a29.4740672596238,29.4740672596238 0 0,0 -0.3861587356577452,0.32909285206238903 l -5.440814824325113 -6.496718399933317" fill="#ff5007" stroke="none" /><path d="M 113.48314897796784 116.09983520530334 l 11.453406482474396 13.676178851728668 a38.838676745691004,38.838676745691004 0 0,0 -0.516239754643763,0.4248301726482582 l -11.216296599285942 -13.871304143234104" fill="#ffd013" stroke="none" /><path d="M 111.7513745106137 117.40417183066458 l 3.079683000146384 4.561111729535466 a26.503470504208835,26.503470504208835 0 0,0 -0.3802936301960572,0.2520378813161132 l -3.0007146712103627 -4.613447631942898" fill="#ff2503" stroke="none" /><path d="M 111.45004920935366 117.60387380957326 l 5.066061074428286 7.788813675400862 a30.291425793706203,30.291425793706203 0 0,0 -0.4395404133946325,0.28053548796334093 l -4.931238858986723 -7.874863592188011" fill="#ff5c08" stroke="none" /><path d="M 111.1453310114006 117.79835938074945 l 6.843456460385907 10.928549126434014 a33.89442058931223,33.89442058931223 0 0,0 -0.4971517403690849,0.3053912040794074 l -6.654325520084513 -11.044728797341799" fill="#ff8e0d" stroke="none" /><line stroke="#e1ed5e" stroke-width="0.3" x1="143.8653032363475" x2="146.44561519142675" y1="172.8068346515853" y2="177.08958963109032" /><path d="M 144.38136562736335 173.6633856474863 a86.0,86.0 0 0,1 -40.68145358897372,12.25698825130547" fill="none" id="id18" stroke="none" /><text fill="#e1ed5e" style="font-size:6.75px; font-family:Arial;" text-anchor="middle"><textPath startOffset="21.466115282336833" xlink:href="#id18">June</textPath></text><path d="M 110.8373102113329 117.98757091392108 l 8.584905546202277 14.249070506456887 a37.63540241578767,37.63540241578767 0 0,0 -0.557778400884246,0.3295453108816336 l -8.33835927428965 -14.39473438963227" fill="#ffc011" stroke="none" /><path d="M 110.5260780823613 118.17145234162733 l 7.637715112782716 13.185193486587153 a36.23758574783977,36.23758574783977 0 0,0 -0.5424442744586769,0.30801401596357575 l -7.40962207140284 -13.314710668345358" fill="#ffae10" stroke="none" /><path d="M 110.21172684928248 118.3499491758327 l 8.470151908026237 15.220428368076119 a38.41852212596628,38.41852212596628 0 0,0 -0.5806267868810134,0.31660401902250285 l -8.206902309276574 -15.363973038858392" fill="#ffcb12" stroke="none" /><path d="M 109.57404056367764 118.69057910512821 l 7.50959676986984 14.66034236447314 a37.47178441728781,37.47178441728781 0 0,0 -0.5766124146000278,0.2891254349578244 l -7.256130447587052 -14.787435640340266" fill="#ffbe11" stroke="none" /><path d="M 109.2508944713604 118.85261126421891 l 7.325082534714161 14.927954689442853 a37.62830915488503,37.62830915488503 0 0,0 -0.5839328227689476,0.28032324046829604 l -7.067037043944981 -15.05183220641071" fill="#ffc011" stroke="none" /><path d="M 108.59647513512805 119.15986991738527 l 5.383388017035958 11.998524104343057 a34.150872489096216,34.150872489096216 0 0,0 -0.5384118011209073,0.2360239111471001 l -5.176055541257297 -12.08941256878461" fill="#ff920d" stroke="none" /><path d="M 108.2653958097858 119.30500536409082 l 8.518951915351163 19.897221646370003 a42.64421333707558,42.64421333707558 0 0,0 -0.6772886778663676,0.28310672227787986 l -8.175191777987335 -20.040913411667855" fill="#fdff18" stroke="none" /><path d="M 107.59598834532513 119.57807347666477 l 2.5443529734552746 6.557873340542325 a28.034161983074206,28.034161983074206 0 0,0 -0.4513897620241704,0.1706769841109619 l -2.4310929906708294 -6.600698574759917" fill="#ff3b05" stroke="none" /><path d="M 103.06178313531738 120.77559828337769 l 9.185349405952133 62.326794850133076 a84.0,84.0 0 0,0 -1.4322856352526783,0.1985017380295897 l -8.111135179512624 -62.47567115365527" fill="#4dd2ff" stroke="none" /><line stroke="#e1ed5e" stroke-width="0.3" x1="102.19456741930631" x2="102.32365962044197" y1="184.97166512339345" y2="189.96999836594603" /><path d="M 102.22038585953345 185.97133177190398 a86.0,86.0 0 0,1 -42.740103519485714,-10.115201625700543" fill="none" id="id19" stroke="none" /><text fill="#e1ed5e" style="font-size:6.75px; font-family:Arial;" text-anchor="middle"><textPath startOffset="22.20632615414155" xlink:href="#id19">July</textPath></text><path d="M 90.42595943632237 118.69057910512821 l -6.16013060373293 12.025895188265709 a34.511823123997715,34.511823123997715 0 0,0 -0.5264024246196631,-0.2753888692459741 l 6.366223930879088 -11.918076900075018" fill="#ff960d" stroke="none" /><path d="M 90.10565033884886 118.52300852407294 l -5.844681621912955 10.941708268938484 a33.40488948375131,33.40488948375131 0 0,0 -0.5048547568662767,-0.27528706676643117 l 6.032159190647873 -10.839480550412288" fill="#ff870c" stroke="none" /><line stroke="#e1ed5e" stroke-width="0.3" x1="58.666819895761336" x2="56.23545636021788" y1="174.27360380694188" y2="178.64263932499728" /><path d="M 58.180547188652646 175.14741091055294 a86.0,86.0 0 0,1 -31.652253787137756,-30.449443065178592" fill="none" id="id20" stroke="none" /><text fill="#e1ed5e" style="font-size:6.75px; font-family:Arial;" text-anchor="middle"><textPath startOffset="22.20632615414155" xlink:href="#id20">August</textPath></text><path d="M 89.7882731507175 118.34994917583269 l -5.1622080328917175 9.276222957853014 a31.615870390064636,31.615870390064636 0 0,0 -0.47326132580838626,-0.26873013215589214 l 5.321118125621311 -9.185989659902488" fill="#ff6e0a" stroke="none" /><path d="M 89.1626897886671 117.98757091392108 l -2.1027893145382195 3.4901715623806666 a25.0746804090857,25.0746804090857 0 0,0 -0.36778681528801155,-0.2259247011424541 l 2.16255532975854 -3.453458394409834" fill="#ff0f01" stroke="none" /><path d="M 85.70375840098266 115.38237550388516 l -7.194089308630087 7.74064864442694 a31.567523949204674,31.567523949204674 0 0,0 -0.39484082564122613,-0.3733466453655118 l 7.326265968662129 -7.615667362315497" fill="#ff6e0a" stroke="none" /><path d="M 84.9287848128048 114.62390073753433 l -7.50612198316299 7.283339892781946 a31.458915202826326,31.458915202826326 0 0,0 -0.37375205923000393,-0.3918775398616172 l 7.630380593771952 -7.153055236337829" fill="#ff6c0a" stroke="none" /><path d="M 82.44556493220864 111.52570212397912 l -9.831588074840441 6.4551183287115155 a32.76132121451549,32.76132121451549 0 0,0 -0.30545273157831204,-0.47406942262507057 l 9.9412456697958 -6.284927306164997" fill="#ff7e0b" stroke="none" /><line stroke="#e1ed5e" stroke-width="0.3" x1="26.63291911575756" x2="22.317208475507996" y1="142.92168965132927" y2="145.44649492493687" /><path d="M 25.769776987707644 143.4266507060508 a86.0,86.0 0 0,1 -11.730757126820373,-40.83630448921669" fill="none" id="id21" stroke="none" /><text fill="#e1ed5e" style="font-size:6.75px; font-family:Arial;" text-anchor="middle"><textPath startOffset="21.46611528233685" xlink:href="#id21">September</textPath></text><path d="M 81.87401531095188 110.60418214915194 l -8.390318511703692 4.908559028038088 a30.720668519169443,30.720668519169443 0 0,0 -0.2630976623827205,-0.45873295093223865 l 8.473568170238789 -4.763406231247542" fill="#ff6209" stroke="none" /><path d="M 81.51974371655577 109.97397251340807 l -8.893391124405719 4.79984894502113 a31.105986126384643,31.105986126384643 0 0,0 -0.2502513492973418,-0.4733812431872288 l 8.974694981927946 -4.646052686747774" fill="#ff6709" stroke="none" /><path d="M 81.35079622478065 109.6543875284942 l -8.968114734209983 4.6426462002152435 a31.098576415828482,31.098576415828482 0 0,0 -0.24200812979181546,-0.47750499939648117 l 9.046701533788065 -4.487586989116077" fill="#ff6709" stroke="none" /><path d="M 81.18737489456691 109.33194174019688 l -8.910993281543371 4.4202693502159285 a30.94708914166197,30.94708914166197 0 0,0 -0.23261415420311116,-0.4792540556950137 l 8.985760692361202 -4.26622633855563" fill="#ff6509" stroke="none" /><path d="M 80.87730276802145 108.67885076344099 l -9.078845205573437 4.120440839893022 a30.970128533866657,30.970128533866657 0 0,0 -0.21614040207887306,-0.4873395472881554 l 9.14842669238359 -3.9635529561121707" fill="#ff6509" stroke="none" /><path d="M 80.73074385275274 108.34839909993369 l -9.272085235047614 4.017127980409252 a31.10489395377185,31.10489395377185 0 0,0 -0.2086235139764819,-0.49312436065063436 l 9.339859730216402 -3.8569290940924583" fill="#ff6709" stroke="none" /><path d="M 80.58989483394504 108.01547362559985 l -9.068385300251355 3.744822739449154 a30.811182869751757,30.811182869751757 0 0,0 -0.19821477415909614,-0.4919528139875567 l 9.131502688667839 -3.588170557618792" fill="#ff6309" stroke="none" /><path d="M 80.45479744820244 107.68017299344265 l -9.016541414780075 3.542997197625991 a30.687664745790386,30.687664745790386 0 0,0 -0.18895669512129998,-0.49330630510017937 l 9.076192389494883 -3.3872673256926533" fill="#ff6109" stroke="none" /><path d="M 80.32549172779594 107.34259656027581 l -9.685698566032753 3.614737201604956 a31.338233976299616,31.338233976299616 0 0,0 -0.1842624570959419,-0.5070111443516926 l 9.74648528413392 -3.4474782602471463" fill="#ff6a09" stroke="none" /><path d="M 80.20201598880116 107.00284435728193 l -8.683365668361757 3.0714368815787627 a30.21056805240621,30.21056805240621 0 0,0 -0.1691923716845973,-0.4917522293090886 l 8.734948870989584 -2.9215119491803776" fill="#ff5a08" stroke="none" /><path d="M 79.76711848015287 105.62410040840567 l -9.79651664190488 2.7231214294733097 a31.16794613650053,31.16794613650053 0 0,0 -0.13923452302576475,-0.5181434566927984 l 9.841939241272419 -2.554087039604972" fill="#ff6809" stroke="none" /><path d="M 79.58551787078972 104.9243191809786 l -9.33505771198189 2.2517741795114987 a30.602801124752467,30.602801124752467 0 0,0 -0.11911693547033508,-0.5131526404263642 l 9.372435213382781 -2.0907528817365604" fill="#ff6008" stroke="none" /><line stroke="#e1ed5e" stroke-width="0.3" x1="15.007084014347285" x2="10.007500721073583" y1="101.09737516637583" y2="101.16192664675087" /><path d="M 14.007167355692545 101.11028546245083 a86.0,86.0 0 0,1 10.666146001902534,-42.60595125391555" fill="none" id="id22" stroke="none" /><text fill="#e1ed5e" style="font-size:6.75px; font-family:Arial;" text-anchor="middle"><textPath startOffset="22.20632615414155" xlink:href="#id22">October</textPath></text><path d="M 81.6062741919709 89.86733742301443 l -4.444595084445334 -2.4484208774252045 a26.074365995638,26.074365995638 0 0,0 0.2199464140129407,-0.3912601282486311 l 4.401791029139963 2.52456451560862" fill="#ff1e03" stroke="none" /><line stroke="#e1ed5e" stroke-width="0.3" x1="26.266209847984243" x2="21.928928074336255" y1="57.711370442889674" y2="55.22380399835377" /><path d="M 25.398753493254645 57.213857153982495 a86.0,86.0 0 0,1 29.58750427330803,-30.492523968695096" fill="none" id="id23" stroke="none" /><text fill="#e1ed5e" style="font-size:6.75px; font-family:Arial;" text-anchor="middle"><textPath startOffset="21.46611528233685" xlink:href="#id23">November</textPath></text><path d="M 83.17141714833178 87.43820079747576 l -8.305741609488875 -6.199871923030463 a31.364543190395622,31.364543190395622 0 0,0 0.32667524855331487,-0.4298663346539494 l 8.197790420711451 6.341923033565438" fill="#ff6b09" stroke="none" /><line stroke="#e1ed5e" stroke-width="0.3" x1="56.762969772571076" x2="54.21961505331055" y1="26.818313649435495" y2="22.513508569990535" /><path d="M 56.25429882871897 25.957352633546506 a86.0,86.0 0 0,1 42.265352541879196,-11.944610805530505" fill="none" id="id24" stroke="none" /><text fill="#e1ed5e" style="font-size:6.75px; font-family:Arial;" text-anchor="middle"><textPath startOffset="22.20632615414155" xlink:href="#id24">December</textPath></text></svg>