<?xml version="1.0" encoding="utf-8" ?>
<svg baseProfile="full" height="300mm" version="1.1" viewBox="0,0,200,300" width="200mm" xmlns="http://www.w3.org/2000/svg" xmlns:ev="http://www.w3.org/2001/xml-events" xmlns:xlink="http://www.w3.org/1999/xlink"><defs /><rect fill="#222222" height="300" width="200" x="0" y="0" /><text fill="#FFFFFF" style="font-size:12px; font-family:Arial; font-weight:bold;" x="10" y="20">yaooRunningGrid</text><text fill="#FFFFFF" style="font-size:4px; font-family:Arial" x="10" y="280">ATHLETE</text><text fill="#FFFFFF" style="font-size:9px; font-family:Arial" x="10" y="290">jinyaoo</text><text fill="#FFFFFF" style="font-size:4px; font-family:Arial" x="120" y="280">STATISTICS</text><text fill="#FFFFFF" style="font-size:3px; font-family:Arial" x="120" y="285">Number: 10</text><text fill="#FFFFFF" style="font-size:3px; font-family:Arial" x="120" y="290">Weekly: 1.1</text><text fill="#FFFFFF" style="font-size:3px; font-family:Arial" x="141" y="285">Total: 144.1 km</text><text fill="#FFFFFF" style="font-size:3px; font-family:Arial" x="141" y="290">Avg: 14.4 km</text><text fill="#FFFFFF" style="font-size:3px; font-family:Arial" x="167" y="285">Min: 10.1 km</text><text fill="#FFFFFF" style="font-size:3px; font-family:Arial" x="167" y="290">Max: 37.2 km</text><polyline fill="none" points="25.6276923075784,71.3525937346858 31.941538461484015,69.39001351647312 34.566769230761565,67.77376332393032 37.52430769242346,66.96563563300879 39.58461538457777,65.42634000812541 43.77169230778236,64.3873119133641 52.44492307701148,60.61600072993315 55.20307692314964,59.73089162647375 57.72861538478173,59.884823793545365 59.22400000016205,58.999712975957664 59.523076923098415,57.42190158934682 63.2781538462732,56.34436807243037 66.20246153848711,53.99687369065941 63.07876923086587,56.498301620275015 59.45661538478453,57.49886815145146 59.22400000016205,59.038196098204935 58.22707692312542,59.692408574948786 55.10338461538777,60.115721926413244 49.68676923098974,62.46317826153245 47.194461538572796,62.771040304825874 44.569230769295245,64.84910253071575 40.182769230916165,66.73474168937537 36.56061538460199,67.38894082969637 34.666461538523436,68.81278209915035 22.90276923077181,73.16123706009239 21.806153846089728,74.27720415158547 22.13846153835766,73.31516375156934 31.64246153854765,69.274567303597 34.167999999946915,68.6973357097304 36.46092307695653,67.04260024952237 43.37292307696771,64.96455009677447 46.99507692316547,62.54014379583532 49.487384615466,62.232281564356526 54.638153846142814,59.92330682557076 57.92800000007264,59.73089162647375 58.26030769245699,60.23117093992187 59.19076923083048,58.88426358581637 59.22400000016205,57.383418302371865 60.95200000004843,56.498301620275015 63.31138461548835,56.19043446180876 64.60738461546134,54.8435126915283 66.63446153851692,54.07384095102316 67.0,53.227200223947875 66.90030769247096,54.22777542471886 65.30523076932877,54.61261133418884 63.57723076932598,56.305884675704874 59.589538461645134,57.691284487984376 58.459692307864316,59.4999932583014 52.5113846155582,60.962347205524566 49.68676923098974,62.655592067952966 46.59630769235082,63.117384803452296 44.33661538467277,64.81062000081874 36.128615384805016,67.61983437321032 34.23446153849363,69.15912105547613 31.775384615408257,69.6593878759304 28.984000000054948,71.27562999681686 22.53723076917231,73.2766820845427 21.5403076922521,74.35416727772099 22.337846153764986,73.23820041367435 24.53107692312915,72.31463913535117 27.422153846127912,71.96830307345954 36.228307692334056,67.27349400497042 44.36984615388792,64.73365492929588 47.02830769238062,62.73255756308208 49.68676923098974,62.34772993056686 54.671384615357965,60.000272877688985 57.62892307701986,59.80785771794035 58.79200000013225,59.15364544116892 59.39015384623781,57.460384872334544 63.31138461548835,56.45981823929469 66.53476923098788,54.38170983552118 65.60430769226514,54.61261133418884 63.17846153851133,56.65223510543001 59.589538461645134,57.65280122848344 58.79200000013225,59.46151018314413 52.411692307679914,60.92386427943711 49.35446153848898,62.655592067952966 47.061538461595774,62.92497123227804 43.871384615427814,65.19544512304128 36.46092307695653,67.54286987445084 34.633230769308284,68.96671056342893 31.04430769220926,70.00572605576599 24.83015384618193,73.46909038024023 24.497846153913997,72.81490177483647 21.64000000001397,73.96935149023193 20.111384615302086,72.69945660920348 17.15384615387302,73.66149857797427 15.82461538456846,67.35045855864882 13.0,60.53903480328154 28.585230769240297,61.42414201190695 27.123076923191547,54.99744685145561 22.60369230771903,45.64583272224991" stroke="#4dd2ff" stroke-linecap="round" stroke-linejoin="round" stroke-width="0.5"><title>2022-02-26 10.2km</title></polyline><polyline fill="none" points="81.56573065900011,86.45117759355344 81.25008595988038,85.83325666617748 81.2872206303582,85.49555338282516 81.1386819484178,84.39621010247356 80.84779369627358,84.08724122728745 80.71782234954298,84.09442656548345 80.35885386820883,83.85731001400563 80.16699140399578,83.58426571448945 80.25982808021945,83.3399620148848 80.68068767912337,83.32559118239442 81.78853868195438,83.65611958107183 82.06085959883058,83.77108561375644 82.41982808022294,84.15190924455965 83.304871060187,83.89323681600217 83.41008595991298,84.04412918248272 84.23942693410208,84.23094785097055 86.34372492835973,84.43932192981447 86.58510028655292,84.08724122728745 86.77696275073686,84.04412918248272 87.27209169056732,82.88009390776278 87.30303724927944,82.4202227708738 87.68057306588162,81.37113039984251 87.88481375356787,80.0777071416087 90.93604584527202,80.27172215842438 91.36928366762004,79.7327902244433 91.89535816619173,79.53158790224552 92.24813753581839,78.94234919326118 92.52664756446029,78.74833048083383 93.26934097422054,78.59742666490638 94.01822349568829,78.67647156155726 95.08275071633398,78.41777883955365 95.48504297994077,78.46089435981412 96.34532951290021,78.80581756295578 96.79094555872143,79.22259749231307 96.99518624643679,79.20822581202083 96.94567335242755,79.47410141792352 96.94567335242755,79.26571251537098 97.87404011463514,78.60461256829149 98.70957020056085,78.24531649213895 98.56722063035704,76.27634114957618 98.88905444127158,75.24871516598068 99.68744985671947,74.66662660116708 100.2816045845102,74.4366643485555 100.72722063036053,74.12046501371515 101.53180515760323,73.96236480894731 102.26830945559777,73.574299151187 103.17810888250824,73.32277396095014 103.8032091690693,72.95626420335611 104.40974212033325,72.41727576823905 104.55209169053705,72.02920151676517 104.41593123209896,71.2889798294782 104.4716332378157,71.01588635000371 104.35404011461651,70.71404494473245 104.44687679081107,68.34238846052176 104.62017191978521,67.8033643782328 105.14005730659119,67.06309785062331 105.94464183380478,66.48812813685072 106.21077363897348,66.49531528751686 107.0463037249283,66.04971054541238 107.94372492836555,65.74066042343475 108.22223495700746,65.8197198873022 108.35839541547466,65.98502574945451 109.32389684816008,65.81253266700514 110.35128939826973,66.11439528137998 110.56790830942919,66.27251327227714 111.65100286534289,66.24376457332255 112.09042979942751,66.3587592980839 113.2849283667747,66.89060743411392 113.39014326647157,67.0846591226873 113.2849283667747,67.65962391950598 113.72435530083021,67.53744429672952 114.06475644698367,67.78180332831107 114.20091690545087,68.01178751727275 114.07713467048598,68.68736168741452 114.19472779371426,68.85266075405525 114.6527220630378,68.71610937931837 115.04263610317139,68.32801453905267 116.001948424062,68.56518386465177 116.19381088824593,68.3783232512651 116.46613180515124,68.54362305019458 116.8189111747779,68.47175362051348 116.93650429800618,68.73048322081013 117.31404011460836,68.99639875451248 117.53684813753353,68.86703456742543 117.56779369627475,68.65861398365814 117.74108882521978,68.54362305019458 118.41570200573187,68.83828693772375 118.5889971346769,68.73767014047189 118.89226361032343,68.83828693772375 119.00366762178601,69.08264141261316 119.36263610317837,68.83110002845933 119.48022922634846,68.99639875451248 119.74636103151715,69.06108075808879 119.49879656161647,69.47073205473134 118.82418338107527,69.55697412645532 118.78085959886084,70.18222595802945 118.89845272206003,70.26128038826573 119.2697994269256,70.08161109908542 119.5359312320943,70.1750391871974 120.00630372494925,69.69352385531238 120.3467048710736,69.66477656616917 120.90372492838651,69.24793954267079 122.32722063039546,68.80235238392925 124.23346704873256,67.91116952789162 125.13088825216983,67.74586823027494 125.95404011462233,67.09903330036468 126.4615472779551,67.25714905934728 126.64722063037334,67.19246538308653 126.97524355299538,66.430630904797 127.0,65.61847743937687 126.53581661891076,65.15130523256812 126.42441260747728,64.56913241097936 126.1830372492841,64.43257265049033 126.00355300857336,64.13789015101065 125.61982808023458,63.986954730105936 125.3722636103048,63.5628963233612 125.40939828081173,63.1603978234707 125.87358166190097,62.75789700070891 126.03449856734369,62.46320742538228 126.15828080230858,61.56475591287017 126.07163323782152,61.14787047971913 125.75598853870179,60.60160303646262 125.68171919771703,60.11283380218083 125.48366762179649,59.73187893517024 125.0937535816629,59.235915706878586 124.84618911176221,59.106533415048034 123.03896848138538,58.9627750314321 122.87805157594266,58.430866435111966 123.42888252148987,57.32390851006494 123.18131805156008,57.00044346089999 122.7914040114556,56.99325533164665 122.40148997138022,56.64103609076119 121.78876790829236,56.81355185965367 120.68710601719795,56.8423044462761 119.86395415474544,56.80636371111177 119.70303724927362,56.66978874854976 119.74636103151715,56.16661552548612 119.9506017192034,55.900651069205196 120.01868194842245,55.56280286452966 119.48641833811416,55.21776471046178 119.4059598853637,55.009303331586125 119.47404011461185,54.44861101290735 119.86395415474544,53.76571043169679 119.75255014328286,52.795261256535014 120.03106017192476,52.49334098020336 120.37146131804911,52.48615238624916 120.79232091692393,52.26330560630595 121.28126074498869,52.32081452092825 122.17868194842595,52.04045811397373 122.6552435530175,50.82556732137891 123.08229226362891,50.55958248832758 123.00183381087845,49.99166552891984 122.07965616046567,49.35904372132063 121.72687679083901,49.58908867929131 121.23174785100855,49.70411087357206 120.17340974212857,49.58189978583687 119.72779369627824,49.919776976283174 119.59782234957675,50.76086840136122 119.21409742120886,51.00528622863931 118.1743266475678,51.113117350570974 117.87106017192127,51.39347748703585 117.60492836678168,51.458175819934695 117.18406876790687,52.33519174218236 116.10716332375887,51.688213850611646 115.76676217766362,51.62351573121123 115.327335243579,51.702591202323674 114.77031518623699,51.49411931226496 114.29994269341114,51.58038361823856 114.46704871061957,49.95572126186016 114.67128939830582,49.387799382573576 115.25306590259424,48.56106938895391 115.8719770773896,48.10097192802641 116.45375358167803,46.49779610901169 118.97272206304478,44.9664771482785 119.96916905444232,44.01747386289935 120.4890544412774,42.93904535163165 120.55094555873075,42.37825593015441 120.3467048710736,40.87560561722057 119.15220630375552,39.04218455222144 118.62613180515473,36.90672743287723 118.94177650430356,36.655069925756834 119.76492836675607,36.39622125580354 120.39002865328803,37.61855374517472 120.58808022923768,37.82706714631058 120.90372492838651,37.96367903628561 121.01512893981999,36.453743265570665 121.60309455587412,36.24522575415904 121.87541547275032,36.02232703457412 121.87541547275032,35.69876310808468 120.98418338110787,35.037249959226756 120.71805157593917,34.95096517237107 120.25386819484993,34.32539727137191 119.75873925499036,33.95868244176381 119.05318051573704,33.72139534683811 118.42808022923418,33.62072785023338 118.21765042981133,33.671061616711086 117.9081948423991,33.54882240644656 114.73318051578826,33.69982375266409 113.51392550140736,33.61353730920382 113.11782234959537,33.72139534683811 106.52641833812231,33.793300612451276 103.77845272206469,34.17439728120371 102.4354154727771,34.49796828792023 100.2816045845102,35.24577108628728 100.08355300861876,35.23858071296854 95.98017191977124,37.34532834393758 94.85994269343792,37.96367903628561 94.33386819483712,38.38789319775242 91.07839541547582,39.940926396418945 89.80343839543639,40.76056885125581 89.2773638968356,41.220714775634406 88.3242406876816,41.5370633360144 87.95908309455262,41.9540660621642 87.73627507162746,42.39263520249369 87.74246418336406,42.66584081260953 88.23759312319453,44.340999162021035 88.44183381088078,44.59981831996265 88.13856733526336,44.43446174659766 88.10143266475643,44.88739403476211 87.95289398278692,44.88739403476211 88.15713467050227,45.05274953340995 88.17570200574119,45.18934725812869 87.9281375358114,45.419405978827854 86.34372492835973,48.438856297099846 84.77169054441038,51.8607418754691 82.98922636103816,54.77208790090663 81.05203438393073,57.20889888670354 78.62590257878765,60.81723543314001 78.18028653293732,61.31318741517316 77.70991404011147,62.34101869971346 77.18383954156889,64.46132209595089 75.63037249285844,67.58056654095708 75.1661891117401,67.8680474880166 74.076905444148,67.74586823027494 73.88504297993495,67.95429154110752 73.48893982806476,68.92452979131485 73.38991404013359,69.33418188980431 73.50750716333278,69.63602926521708 73.43942693411373,70.3475214827049 73.0,71.60519199656119 73.03713467050693,71.78485736210132 74.8938681948348,72.1729329726877 77.00435530085815,72.02201493618486 77.98223495698767,72.36696996852697 79.02200573065784,72.46039499627659 79.57283667620504,72.36696996852697 80.24126074498054,72.02920151676517 80.51358166188584,72.04357467567024 83.42865329515189,73.56711272976099 84.29512893981882,73.82582343473041 85.23587392549962,74.59476347864256 85.43392550142016,75.10499004588928 85.57627507162397,76.19729353426374 86.00332378223538,77.21771950353286 86.23232091692626,77.5626488511407 87.2535243552993,78.53993941109366 87.66819484240841,79.15073906136968 87.82911174785113,80.07052138987638 87.54441260744352,81.85256515796937 87.35873925502528,82.13998731111496 86.9688252148917,83.32559118239442 86.81409742121468,83.47648477596522 86.39942693407647,84.4033954088809 85.38441260746913,84.35309824849537 85.29157593121636,84.41776601949823 84.95117478512111,84.3028010518683 84.30131805155543,84.3028010518683 80.16080229225918,83.2537369755737 80.12366762178135,83.77108561375644 80.6064183381095,83.99383176323317 80.79828080229345,83.93634895400464 81.05822349569644,84.2884304176041 81.2810315186216,85.17221892107773 81.31197707739193,85.7685902064768 81.53478510028799,86.33621597469028 81.69570200573071,86.22843928507791" stroke="#ff0000" stroke-linecap="round" stroke-linejoin="round" stroke-width="0.5"><title>2017-06-24 37.2km</title></polyline><polyline fill="none" points="148.79529109213036,81.04749335494125 149.08159027446527,79.08344183804002 149.65418863901868,81.04749335494125 150.51308618602343,81.34965396040934 151.29390213778242,80.77554854401387 151.31992933619767,77.36110892440774 150.35692299576476,76.69634614966344 149.28980786155444,77.14959365938557 149.44597105192952,80.71511632957845 150.4350045908941,81.34965396040934 151.18979334423784,80.9266290255764 151.47609252645634,79.74819920706796 151.18979334423784,77.14959365938557 150.12267821014393,76.66612962418003 149.2117262663087,77.4819747217116 149.34186225838494,80.6546841027448 149.81035182939377,81.19857369663077 150.69527657469735,81.16835763448034 151.34595653461292,80.20144200485083 151.08568455069326,76.96829473943217 150.22678700368851,76.60569656378357 149.36788945668377,77.24024307730724 149.18569906800985,80.1712258400803 150.20075980527326,81.25900581147289 151.26787493925076,80.71511632957845 151.29390213778242,77.63305689836852 150.48705898760818,76.69634614966344 149.28980786155444,77.42154182927334 149.34186225838494,80.6546841027448 150.35692299576476,81.25900581147289 151.42403812962584,80.4733873475925 151.5541741218185,79.35538821635419 151.97060929599684,79.05322555816383 151.81444610562176,73.19120844214922 152.725398049457,72.61708706992795 154.41716594493482,72.82860560086556 155.56236267415807,67.0268992218771 157.5924841488013,62.79641602584161 156.7075594033813,61.55747726093978 156.5774234115379,58.74718214041786 158.91987126669846,56.81319997514947 160.40342157508712,54.00285942669143 163.31846779515035,52.52213153880439 165.6348884521285,52.12928411050234 168.68007066403516,52.64300756476587 171.80333447107114,51.43424506459269 175.10878866701387,51.071615343680605 177.42520932399202,51.91775066207629 178.7005420452915,51.736436156439595 179.55943959217984,50.79964275902603 179.50738519534934,48.5331947512459 178.54437885491643,44.45354422763921 177.0868557448266,43.78870691618067 175.10878866701387,38.01664695289219 171.4910080904374,37.47267733264016 169.4869138142094,38.16774944629287 168.60198906890582,39.346346223930595 167.01432996685617,40.283176183205796 163.34449499368202,40.07163419574499 159.28425204427913,38.31885186169529 157.72262014076114,38.25841090490576 156.94180418900214,33.0 150.14870540855918,33.60441983974306 149.68021583743393,34.05773390244576 149.70624303584918,35.84076242145966 148.79529109213036,36.65672101153177 142.80903546186164,36.838044834526954 141.71589312923606,37.32157448140788 140.96110437589232,39.860092055780115 141.37753955030348,42.30792749099783 144.55285775405355,48.62385300765163 147.96242074354086,52.70344555913471 146.32270724477712,57.96150342270266 144.50080335733946,60.046569250378525 144.55285775405355,61.43660490628099 143.98025938950013,62.6151082405413 141.2213763599284,64.91166524557048 140.44056040793657,68.6586407313589 142.54876347782556,73.2516422054905 146.01038086402696,72.55665317593957 148.58707350492477,73.16099155577831 148.66515510017052,79.68776678128052 148.0925567355007,82.10505411372287 148.74323669529986,83.40433783037588 148.56104630662594,86.00288801288116 149.57610704377294,87.0 150.617194979568,86.81870716332924 150.40897739247885,83.34390615712618 151.736364510376,83.16261106263846 152.12677248637192,82.37699769297615 151.34595653461292,77.51219116323045 150.82541256665718,76.75677919137524 149.8363790276926,76.81721222068882 149.2117262663087,77.57262403701316 149.2117262663087,80.5942518634256 150.4350045908941,81.22878975560889 151.31992933619767,80.35252278190455 151.26787493925076,77.33089246726013 150.25281420210376,76.72656267206185 149.23775346484035,77.51219116323045 149.26378066302277,80.62446798468591 150.3308957972331,81.1381415691867 151.29390213778242,80.4733873475925 151.34595653461292,77.30067600708571 150.01856941648293,76.78699570757453 149.3158350599697,77.36110892440774 149.2117262663087,78.02587019375642 149.44597105192952,80.74533243832411 150.7733581699431,81.04749335494125 151.26787493925076,80.32230663267546 151.29390213778242,76.9078617412597 149.86240622610785,76.5150469498185 149.08159027446527,77.72370616701664 149.13364467117935,80.80576464656042 150.69527657469735,81.47051811567508 151.26787493925076,80.83598074596375 151.398010931327,77.39132537835394 150.278841400519,76.45461385836825 149.08159027446527,77.24024307730724 149.18569906800985,80.77554854401387 150.22678700368851,81.28922186425189 151.24184774106834,80.80576464656042 151.58020132000092,79.9294964102155 151.26787493925076,76.96829473943217 149.86240622610785,76.6359130955243 149.02953587763477,77.57262403701316 149.02953587763477,80.20144200485083 149.44597105192952,80.9870611965016 150.25281420210376,81.28922186425189 151.5021197248716,80.32230663267546 151.08568455069326,76.72656267206185 150.25281420210376,76.5150469498185 149.26378066302277,77.0891606984951 149.13364467117935,79.35538821635419 149.26378066302277,80.5640357391676 149.70624303584918,81.01727727727848 150.56514058285393,81.1381415691867 151.31992933619767,80.62446798468591 151.97060929599684,78.93236040777992 151.97060929599684,73.10055777386879 152.38704447029158,72.73795482050627 154.39113874640316,72.88903943888727 154.93770991277415,69.68602887997986 160.01301359932404,71.68036031504744 160.35136717837304,72.19404955080245 160.22123118652962,74.18836394624668 163.96914775494952,76.33374763798201 165.5307796584675,84.34102717533824 166.38967720547225,84.94534129565" stroke="#4dd2ff" stroke-linecap="round" stroke-linejoin="round" stroke-width="0.5"><title>2017-06-09 12.8km</title></polyline><polyline fill="none" points="29.0760722408304,137.22465798581834 29.54940092365723,137.25357961765258 30.097465714323334,139.01779352824087 31.01921104406938,139.3359292841924 31.567275834735483,139.01779352824087 31.8163961940445,136.2413207332138 31.392891583032906,135.17121451863204 30.346586073748767,134.9976833970868 29.89816942671314,135.3158237047901 29.624137031496502,137.1089714288246 30.022729606484063,139.01779352824087 31.069035116001032,139.36485069867922 31.5921878706431,139.01779352824087 31.891132301883772,136.44377280183835 31.29324343940243,135.0266052581428 30.446234217495658,134.91091779616545 29.798521283082664,135.40258918065228 29.67396110331174,137.97661944516585 29.923081462737173,138.8731862474524 30.844826792483218,139.48053632691153 31.766572122229263,138.78642184325145 31.44271565496456,135.11337082344107 30.620618468965404,134.82415216843947 29.798521283082664,135.37366735830437 29.599224995588884,137.36926611504168 29.923081462737173,138.8731862474524 30.695354576804675,139.3359292841924 31.49253972689621,139.07563641978777 31.866220265976153,138.06338409948512 31.567275834735483,135.22905820197775 30.570794397150166,134.85307404727791 29.574312959681265,135.77857259998564 29.748697211034596,138.55504996763193 30.04764164239168,139.07563641978777 31.143771223840304,139.36485069867922 31.866220265976153,138.06338409948512 31.69183601438999,135.4315109999734 30.770090684643947,134.82415216843947 29.64904906740412,135.5182764402125 29.77360924705863,138.49720696904114 30.695354576804675,139.22024359638453 31.716748050414026,138.61289295440656 31.791484158136882,135.8942597048299 31.044123079977,134.79523028651602 29.798521283082664,135.34474553298787 29.947993498761207,138.95995062493603 31.01921104406938,139.16240073472727 31.866220265976153,138.15014872694155 31.69183601438999,135.4315109999734 30.446234217495658,134.91091779616545 29.624137031496502,135.63396365207154 29.748697211034596,138.64181444328278 30.99429900816176,139.16240073472727 31.965868409723043,138.26583485520678 32.364460984710604,136.70406810429995 32.364460984710604,131.20889386191266 33.21147020661738,130.9775157464319 34.40724793181289,131.3535050873179 34.805840506684035,131.03536029323004 35.45355344109703,127.18867199859233 37.670724639785476,122.09823660046095 36.7240672740154,120.30499307057471 36.62441913026851,117.73080089729046 39.16544679610524,115.56151951570064 40.485784700722434,113.160828592896 43.026812366442755,111.83031635382213 45.51801596034784,111.36752801082912 47.73518715891987,111.83031635382213 53.76389985613059,110.32625145144993 55.30844608438201,110.44194903751486 56.45439973752946,111.19398218559218 58.048770037596114,110.87581456097541 58.64665890019387,110.15270498290192 58.74630704394076,108.35938519678893 58.19824225327466,106.97100072511239 57.949121893849224,104.22313622676302 56.45439973752946,103.44215930567589 54.36178871872835,97.77278026222484 50.201478716917336,97.51244888475048 46.938002008828335,99.94219902492478 43.649613265064545,99.9711244951759 39.36474308348261,98.03311139851576 38.119141286588274,98.06203706542146 37.54616446001455,96.47112096150522 37.89493296307046,94.79341785333236 37.44651631626766,93.37604017613921 35.254257153719664,93.0 30.22202589409426,93.86778426222736 29.97290553455241,95.83475199667737 29.399928707978688,96.41326929701609 22.848063256125897,96.76037910525338 21.75193367479369,98.92980568757048 22.275086429552175,102.45870379765984 23.670160442125052,105.466909803421 25.53856313752476,108.56185735890176 28.528007450164296,112.00386178589542 27.23258158133831,116.34246274281759 26.036803856375627,118.33819668233627 25.115058526629582,119.03236168585136 24.66664187971037,121.14376969487057 23.769808585871942,122.38746835579514 22.399646609206684,122.96593097332516 21.8764938544482,123.66008454214898 21.25369295605924,127.07298130934942 23.171919723274186,131.46919401406194 23.969104873365723,131.642727314902 27.581350084510632,130.89074890399934 29.001336132991128,131.1510493508831 29.25045649241656,144.10792240011506 30.346586073748767,144.94662796836928 30.645530504989438,145.9877762258402 33.13673409889452,147.0 36.49985895049758,141.533948301716 38.14405332249589,141.50502711054287 39.71351158665493,140.89768140701926 41.806122605572455,141.07120888476493 42.727867935202084,140.31925570694148 44.347150271292776,140.14572776475688 45.21907152910717,142.74863564566476 46.41484925430268,142.48834594257642" stroke="#4dd2ff" stroke-linecap="round" stroke-linejoin="round" stroke-width="0.5"><title>2017-06-03 10.3km</title></polyline><polyline fill="none" points="90.27188823604956,143.69222262944095 91.0859561660327,142.5581193015969 90.97741377539933,139.3448037180351 90.27188823604956,138.6202278956771 89.29500671999995,138.58872456013341 88.48093879001681,139.91186186071718 88.69802357128356,142.46361050129053 89.2678711223416,143.21968008691329 90.19048144307453,143.53470852962346 90.7874645916745,143.21968008691329 91.05882056837436,141.92806008140906 90.73319339647423,139.06127425268642 89.48495590372477,138.52571787929628 88.53520998521708,139.91186186071718 88.83370155969169,142.77863972223713 89.51209150138311,143.34569150296738 90.43470182211604,143.31418865377782 90.97741377539933,142.2430898535822 90.76032899413258,139.12428082324914 89.70204068499152,138.6202278956771 88.64375237596687,139.28179719290347 88.80656596203335,142.6526280727412 90.19048144307453,143.34569150296738 91.00454937305767,142.49511343802442 90.67892220104113,139.02977096263203 89.53922709892504,138.55722122138832 88.75229476660024,139.0927775395685 88.61661677830853,142.30609576919232 89.89198986871634,143.3771943488391 90.95027817774098,142.77863972223713 90.92314258008264,139.3448037180351 89.864854271058,138.6202278956771 88.83370155969169,139.15578410364105 88.75229476660024,142.6526280727412 89.83771867328323,143.31418865377782 90.95027817774098,142.68413099003374 91.00454937305767,140.63643462519394 91.54726132634096,140.47891895278008 91.7372105101822,139.62833292072173 91.41158333804924,136.19446157073253 91.71007491240744,134.83980447726208 92.19851567049045,134.3672482665861 94.20654989790637,134.4302558034542 94.31509228853974,132.54002405286883 95.75327896501403,127.49934897222556 97.5442284111632,124.31738007912645 96.48594010202214,122.6476207896194 96.51307569968048,119.84366488267551 99.14522867347114,117.7012992342934 100.5020085569704,115.02332108054543 104.27385663287714,112.88092168237199 109.21253540844191,113.38501700790948 114.42257016070653,111.71519806113793 116.67482476716395,111.96724678800092 117.7331130761886,112.81790970824659 119.46979132690467,112.5973676967842 120.22958806168754,111.99875286431052 120.47380844061263,110.99055681488244 119.44265572936274,105.22487183474004 117.84165546682198,104.31117407765123 117.62457068543881,102.70431967906188 115.670807653456,98.32481092348462 114.42257016070653,98.54536322318017 112.33312914019916,97.72616816562368 111.35624762414955,97.82069078422501 109.6467049709754,98.67139303739532 107.23163677856792,100.68786300340435 104.27385663287714,101.03444244037382 100.25778817792889,99.585107637482 98.92814389220439,98.60837813676335 97.62563520402182,98.60837813676335 97.05578765308019,93.0 89.24073552468326,93.72468385807588 88.9151083525503,96.4973714662774 81.80558176350314,97.12752423633356 80.72015785682015,97.66315307034529 79.98749671981204,100.02621026083943 80.55734427087009,102.95637582903146 84.16637876082677,109.69880077175912 87.44978607853409,113.70007616470684 86.22868418344297,117.98484849010129 85.224667069735,119.81215961420094 83.84075158869382,121.00935753743397 83.75934479571879,122.83665060051135 82.61964969371911,124.9789802962623 80.2588526965119,126.45969940867508 79.52619155938737,129.89367998787202 81.12719182192814,134.0837141898519 81.8327173612779,134.8083007526293 82.8095988772111,135.02882675730507 87.01561651588418,134.24123315382167 88.07390482490882,134.71378955905675 88.18244721565861,140.73094398979447 88.69802357128356,141.07747807676787 88.88797275489196,142.68413099003374 89.94626106403302,143.25118294573622 90.73319339647423,142.84164552751463 90.97741377539933,139.65983614927973 89.91912546625827,138.55722122138832 88.64375237596687,139.40781023021555 88.75229476660024,142.30609576919232 89.62063389201649,143.25118294573622 90.543244212633,143.09366861893795 90.92314258008264,142.52661637141136 90.81460018944927,139.37630697569693 89.78344747796655,138.43120783378254 88.64375237596687,139.40781023021555 88.07390482490882,142.08557500812458 88.45380319224205,140.98296881921124 89.29500671999995,143.47170286701294 91.0859561660327,142.49511343802442 91.14022736158222,140.66793774990947 91.71007491240744,139.691339374549 91.65580371709075,134.8083007526293 94.20654989790637,134.52476708448376 94.80353304662276,131.31136715438333 99.90502540813759,133.23311038367683 100.3934661662206,134.05221038733725 100.36633056856226,136.1629579855653 104.38239902351052,137.80114011777914 105.16933135583531,143.6292169993103 105.73917890689336,145.64539073227206 106.3090264579514,145.89741151509224 106.74319602060132,147.0" stroke="#4dd2ff" stroke-linecap="round" stroke-linejoin="round" stroke-width="0.5"><title>2017-05-23 10.5km</title></polyline><polyline fill="none" points="151.23906695481855,138.96665609127376 151.88161775644403,137.67556136942585 151.65919632511213,135.23681057841168 150.72008361504413,134.69167513085995 149.55854947376065,135.32288449897896 149.75625741260592,138.1633089671377 150.00339233630802,138.70843762531877 150.8436510770116,138.9953470172186 151.88161775644403,138.10592694117804 151.68390981759876,135.40895839300356 150.6459431379335,134.6342923901684 149.58326296601444,135.43764968513278 149.7315439202357,138.19199997576652 150.05281932116486,138.73712857771898 150.94250504637603,138.9953470172186 151.8074772793334,138.19199997576652 151.70862330985256,135.1507366312726 151.04135901597328,134.69167513085995 150.1516732905293,134.74905785970623 149.53383598127402,136.01147490678704 150.02810582867824,138.79451047384646 150.8930780616356,138.9953470172186 151.73333680222277,138.5936737858574 151.70862330985256,135.26550188826513 150.69537012279034,134.72036649673828 149.7315439202357,135.23681057841168 149.75625741260592,138.22069098142674 150.91779155400582,139.05272886008606 151.7827637869632,138.24938198406016 151.75805029459298,135.35157579995575 151.11549949308392,134.72036649673828 149.7315439202357,135.2941931950918 149.55854947376065,137.10173957343795 149.9292518593138,138.56498281855602 151.0907860005973,138.93796516236034 151.85690426407382,137.79032558685867 151.65919632511213,135.32288449897896 150.27524075238034,134.80644057682366 149.7315439202357,135.43764968513278 149.83039788971655,138.2780729837832 150.69537012279034,138.96665609127376 151.90633124893066,138.19199997576652 152.32646061910782,135.78194495977368 152.32646061910782,130.90438890384394 154.50124794780277,130.84700538343168 155.61335510434583,126.05543974912143 157.51629401685204,121.95241687982343 156.75017575337552,119.886536347738 156.77488924574573,117.59109557355987 159.14738451328594,115.63995605002856 160.4324861165369,113.0001573037298 163.10154329251964,111.62286107445834 165.1774766515009,111.27853595354827 167.52525842678733,111.85241091874195 172.76451880915556,110.24555803803378 174.81573867588304,110.10208858019905 176.100840279134,111.13506702752784 176.99052600446157,111.2498421742348 178.54747602366842,110.27425192069495 177.60836331371684,104.24847171496367 176.22440774098504,103.47371909173671 174.29675533610862,98.02169527014485 172.93751325574704,98.19386607469642 170.16960211028345,97.4764870206127 168.53851161384955,98.2799514370272 166.68499968620017,100.00165309922886 163.29925123148132,100.11643283182639 159.14738451328594,98.16517094805022 157.83756941754837,98.25125631922856 157.51629401685204,94.14782404119615 157.34329957026057,93.28695645360858 156.8984567077132,93.0 150.42352170671802,93.80347732536029 150.05281932116486,94.20521511914558 150.00339233630802,95.92694196017692 149.4844089965336,96.52954384099576 142.53991764062084,96.9886682088254 141.69965890003368,99.42775372733013 142.4657771635102,103.07199466129532 144.0968676598277,106.37185675097862 148.44644231710117,111.96718576989952 147.16134071385022,116.47206134092994 146.4446494349977,117.76325428747805 145.0359803698957,119.11182720019133 144.7888454461936,120.89078574135783 142.09507477795705,123.32966206030687 141.45252397633158,126.68666867550928 143.30603590398096,131.44953175852424 148.19930739328265,130.78962185120326 149.11370661098044,131.191306328692 149.31141454994213,133.4866350951197 148.79243121028412,138.9953470172186 149.28670105768833,140.2003632382257 148.9901391491294,142.4095461142424 149.2372740728315,143.72930934870965 150.47294869134203,144.8769244736468 150.91779155400582,146.13929565437138 152.77130348188803,147.0 153.9081241308013,146.31143673611223 158.05999084899668,138.50760087530944 158.28241228032857,136.35576947269146 159.22152499039657,134.69167513085995 159.5428003912093,132.82673001074 160.08649722335394,132.2815898495901 164.53492584999185,134.11784719213028 164.36193140340038,136.06885736394906 165.1280496668769,140.4585803221562 165.79531396075618,142.20871203081333 166.5861457166029,142.23740262299543" stroke="#4dd2ff" stroke-linecap="round" stroke-linejoin="round" stroke-width="0.5"><title>2017-05-17 10.2km</title></polyline><polyline fill="none" points="28.8720807650825,201.7948420147295 28.980118815903552,203.0177485702443 29.520309070125222,203.42538299789885 31.05985129426699,202.61011359724216 31.05985129426699,199.69393980439054 30.222556400462054,198.7532326259534 29.493299557361752,198.7532326259534 28.68301417620387,199.56851234848727 28.8720807650825,202.2651912709407 29.520309070125222,203.29995707827038 30.89779421815183,202.79825288333814 30.97882275620941,199.31765728152823 29.8984422479989,198.7532326259534 29.223204430309124,198.84730347449658 28.737033201614395,199.69393980439054 28.8720807650825,202.61011359724216 30.141527862288058,203.42538299789885 31.140879832440987,202.54740047597443 30.89779421815183,199.22358657824225 29.87143273523543,198.69051871079137 28.737033201614395,199.56851234848727 29.115166379488073,202.9863920531643 29.92545176052954,203.39402652275749 30.84377519262489,202.9863920531643 31.05985129426699,200.03886504197726 30.195546887698583,198.8159465281933 29.547318582655862,198.7532326259534 28.84507125231903,199.31765728152823 28.89909027784597,202.32790445021237 29.736385171767324,203.331313563016 30.33059445116669,203.39402652275749 31.032841781619936,202.61011359724216 31.05985129426699,199.94479456130648 30.816765679977834,199.0668020081648 30.033489811467007,198.62780478267814 28.79105222702492,199.3490141762304 29.088156866724603,203.0177485702443 30.195546887698583,203.39402652275749 31.05985129426699,202.20247807871783 30.95181324344594,199.4430848408083 30.38461347669363,198.7532326259534 29.65535663359333,198.69051871079137 28.737033201614395,199.50579860105063 28.8720807650825,202.35926103490056 29.736385171767324,203.23724409905844 31.113870319793932,202.4846873419301 31.816117650130764,194.58272914754343 34.084916717372835,194.64544390840456 35.73249699245207,187.84081705237622 37.35306775488425,184.83042671711883 36.299696759320796,181.94544139294885 36.70483944984153,179.84440227536834 38.94662900455296,178.11965783909545 40.5131807414582,175.1718901913555 42.51188468176406,173.9488718357752 45.59096913028043,173.22760229808046 48.399958451627754,173.69799566856818 50.39866239193361,173.41575973347062 51.37100484932307,172.53769070730777 53.288680251454934,172.19273432574118 56.1516885983292,172.00457613478648 57.79926887329202,172.97672553686425 59.47385866113473,172.85128707869444 60.2301250169985,172.2240940129268 60.257134529645555,169.68394888812327 59.58189671195578,168.2100278059952 59.365820610313676,165.2935246420966 58.042354487697594,164.7290369325201 55.476450780639425,158.42551976221148 53.963918069028296,158.77049173857085 52.289328281302005,158.01782510447083 51.04689069685992,158.1432696726988 46.59032110031694,161.31072789427708 42.83599883422721,160.84031538997078 39.297752669779584,158.7391306659265 37.65017239458393,158.99001915642293 37.13699165324215,153.31361649150494 36.245677733793855,153.0 29.493299557361752,154.09765630710172 29.007128328550607,154.4426331864379 29.331242481130175,156.4497636416345 28.81806173978839,157.13971168006537 21.33642672013957,157.61012990088784 20.148008160991594,160.1503757360042 20.71520792786032,163.38053428003332 22.281759664881974,167.33194377066684 27.467586104408838,173.8234337779868 26.036081930971704,178.7781977765262 24.8746728845872,180.75380904550548 23.90233042719774,181.5064194916631 23.767282863613218,183.04299337801058 23.03802602062933,184.45412583314464 21.90362648689188,185.48895214527147 20.607169876922853,185.86525175071438 20.175017673755065,186.6492077689909 19.74286547047086,190.3180951171089 21.201379156671464,194.488656982081 22.551854791818187,195.30394811794395 24.388501655776054,194.64544390840456 27.737681231461465,194.64544390840456 28.277871485683136,197.37352350950823 27.899738307809457,203.11181810198468 28.088804896571673,201.23042194874142 30.600689578335732,200.19564911178895 31.57303203572519,200.57193055003881 31.762098624720238,197.59302310511703 31.302936908672564,196.11923707192182 31.627051061135717,194.67680128396023 32.437336442410015,194.30051256384468 34.084916717372835,194.64544390840456 34.65211648424156,191.63512082220404 39.83794292376842,193.2657161867828 40.10803805082105,196.27602315906552 42.91702737228479,197.15402375569101 44.88872179982718,198.5023768877436 45.29386449046433,203.64487823296804 46.13115938438568,206.96864389287657 46.860416227253154,207.0" stroke="#4dd2ff" stroke-linecap="round" stroke-linejoin="round" stroke-width="0.5"><title>2017-05-15 10.1km</title></polyline><polyline fill="none" points="73.0,188.20550130860647 73.0,184.7021687385277 75.70000000018626,190.7868954866426 77.68529411777854,191.61662774992874 80.3852941179648,189.86496984859696 80.62352941185236,180.36908055178355 78.8764705886133,177.69546248955885 75.5411764709279,177.69546248955885 74.27058823546395,179.53933786932612 74.35000000009313,188.29769408603897 76.33529411768541,191.61662774992874 80.22647058824077,190.41812534542987 80.70294117648154,180.83004837681074 79.43235294148326,178.24862550204853 76.81176470592618,177.32668695796747 74.5088235293515,179.17056309699547 73.79411764722317,185.80848576745484 76.09705882379785,191.3400504141464 78.8764705886133,191.24785795010393 80.54411764768884,189.7727772325161 80.54411764768884,180.00030612107366 78.00294117676094,177.60326862102374 75.22352941194549,178.24862550204853 74.27058823546395,179.81591884884983 74.35000000009313,188.02111572539434 77.0500000002794,191.3400504141464 80.46470588259399,189.6805846071802 80.54411764768884,180.64566127507715 78.16176470601931,177.51107474270975 74.98529411759228,178.24862550204853 74.03235294157639,180.00030612107366 74.66764705907553,189.4040066737216 78.16176470601931,191.524435314117 80.70294117648154,189.0352359629469 80.30588235333562,179.07836938020773 77.20882352953777,177.51107474270975 74.11176470620558,179.9081124898512 74.5088235293515,189.21962133730995 77.12941176490858,191.61662774992874 79.75,190.87908799824072 80.62352941185236,189.31181401014328 80.86176470620558,179.81591884884983 78.71764705935493,177.32668695796747 75.46176470583305,177.87985019828193 74.03235294157639,179.72372519859346 74.35000000009313,188.9430432614172 77.9235294116661,191.3400504141464 80.70294117648154,189.21962133730995 80.54411764768884,180.00030612107366 77.68529411777854,177.32668695796747 74.5088235293515,179.35495050210739 74.58823529444635,188.66646510030841 77.9235294116661,191.4322428687592 80.78235294157639,189.49619932763744 80.62352941185236,180.00030612107366 76.97058823565021,177.60326862102374 75.22352941194549,178.24862550204853 74.11176470620558,180.92224191321293 74.98529411759228,190.69470296573127 78.71764705935493,191.3400504141464 80.94117647083476,188.48207961203298 80.3852941179648,179.63153153879102 79.11470588250086,177.9720440384117 76.33529411768541,177.78765634878073 74.42941176518798,180.73785483068787 74.98529411759228,190.04935505223693 78.32058823527768,191.524435314117 80.94117647083476,188.20550130860647 80.46470588259399,179.72372519859346 76.97058823565021,177.78765634878073 74.27058823546395,180.64566127507715 74.74705882370472,189.4040066737216 78.08235294185579,191.524435314117 80.94117647083476,188.29769408603897 80.22647058824077,179.35495050210739 76.01764705916867,178.06423786911182 74.19117647083476,181.1066289577284 75.14411764778197,190.23374021757627 77.60588235314935,191.524435314117 80.3852941179648,189.58839197200723 80.54411764768884,181.75198331457796 79.43235294148326,178.1564316903241 74.8264705883339,178.6174006537185 74.5088235293515,188.9430432614172 76.57352941203862,191.4322428687592 80.46470588259399,189.6805846071802 80.46470588259399,180.5534677102114 77.3676470592618,177.69546248955885 74.35000000009313,179.63153153879102 74.58823529444635,188.75865783035988 76.97058823565021,191.4322428687592 80.22647058824077,189.95716245507356 80.86176470620558,181.29101596400142 79.11470588250086,178.1564316903241 74.74705882370472,179.17056309699547 74.58823529444635,188.20550130860647 76.33529411768541,191.24785795010393 78.8764705886133,191.06347299326444 80.70294117648154,189.0352359629469 80.70294117648154,180.27688695839606 78.39999999990687,177.60326862102374 74.42941176518798,179.53933786932612 74.66764705907553,188.85085055063246 76.25588235305622,191.4322428687592 79.43235294148326,191.06347299326444 80.70294117648154,189.31181401014328 80.54411764768884,179.35495050210739 77.28823529416695,177.51107474270975 74.27058823546395,179.72372519859346 74.58823529444635,189.4040066737216 77.76470588240772,191.3400504141464 80.62352941185236,189.0352359629469 80.54411764768884,178.80178817280103 78.8764705886133,177.60326862102374 75.62058823555708,178.1564316903241 74.19117647083476,182.12075702403672 75.14411764778197,190.51031789486296 77.52647058852017,191.524435314117 80.0676470589824,190.3259327862761 80.14705882361159,179.17056309699547 76.97058823565021,177.78765634878073 74.27058823546395,180.09249974309932 74.90588235296309,190.04935505223693 77.3676470592618,191.3400504141464 79.82941176509485,190.60251043515746 80.46470588259399,179.35495050210739 77.12941176490858,177.41888085525716 74.35000000009313,180.27688695839606 74.66764705907553,188.9430432614172 77.12941176490858,191.524435314117 80.62352941185236,188.75865783035988 81.02058823546395,179.63153153879102 76.89117647102103,177.69546248955885 74.42941176518798,180.5534677102114 75.30294117657468,190.51031789486296 77.84411764750257,191.524435314117 80.0676470589824,190.23374021757627 82.84705882379785,181.56759640283417 82.68823529407382,166.44774046970997 85.70588235324249,164.8804237297154 90.70882352953777,165.24920438602567 90.47058823565021,159.9940656994586 92.3764705886133,156.582818819792 100.71470588259399,159.07210836466402 108.2588235293515,163.22090889769606 107.94117647083476,168.4760286504752 103.25588235305622,180.83004837681074 99.4441176475957,198.25445818377193 102.62058823555708,199.54514172277413 107.54411764722317,197.42473206989234 116.20000000018626,196.68719710083678 120.72647058824077,194.3823964088224 123.982352941297,202.58745984814595 127.0,203.417181180208" stroke="#4dd2ff" stroke-linecap="round" stroke-linejoin="round" stroke-width="0.5"><title>2017-02-19 10.1km</title></polyline><polyline fill="none" points="148.19963647483382,203.19795581619837 152.67212496310822,204.30453714547912 155.16498739927192,204.58827380114963 155.18942722707288,204.31399504810543 155.45826533288346,204.09646304111084 155.97964832608704,204.31399504810543 158.41548449732363,204.34236875019997 161.3727036617347,204.1342947315061 162.31771033687983,203.71814528050163 162.3991764295497,203.51952783261368 162.2606840719818,203.23578787654696 162.008139184647,203.15066571885836 161.77188751587528,203.29253593787143 161.6904214232054,203.58573369627265 161.51119601927348,203.18849779866287 161.3156773968367,201.87382388983679 161.01425285392907,201.2212089912864 161.19347825780278,199.0930847245254 161.66598159540445,198.34586495531403 162.36658999248175,198.14723589286587 163.01017212466104,197.15408413838304 163.7352203495684,196.92707651547244 165.09570409735898,196.91761785231938 166.49692089151358,196.61494011797913 166.98571744762012,196.65277488931315 168.32176136760972,197.1446254986513 168.87573079788126,197.63647347447113 168.75353165887645,197.7594350569634 169.03051637398312,197.67430782505835 169.08754263882292,197.81618650104792 169.111982466653,197.67430782505835 170.16289506226894,196.9554524990308 171.2219542671519,196.52981182550138 171.37673984328285,196.331178836248 171.1567813929869,193.80566481032292 171.6048449027876,192.46247925207717 172.72907698180643,191.6489911239696 173.61705739202444,191.2706220977925 174.0162412461941,190.91117007914727 175.27081907351385,190.66522841369442 176.0040139077173,190.24901794104517 177.12824598670704,189.9557776118163 178.3095043305948,189.22740242036525 178.99381950916722,188.55577861821075 178.86347376083722,187.5341442615172 179.04269916479825,188.10172030725516 178.80644749599742,187.27873389649176 178.77386105890037,186.48411932916497 178.89606019793428,183.33397249083646 179.09972542963806,182.7096062310011 179.75960078040953,181.74466820575617 180.15063802528311,181.3473378360868 181.0630582633603,180.7891803649618 181.14452435600106,180.5810529818118 181.1200845282001,175.0938881427428 181.01417860772926,174.97089620731276 176.9001409272023,174.22348013319424 174.8553420008393,171.91496674415248 174.70055642476655,171.40405839363666 174.69240981547046,169.9375464055047 173.59261756425258,168.3290869589764 172.85127612081124,167.8654669438547 170.43173316813773,167.1463782054998 169.111982466653,166.36105117302213 168.67206556614838,165.9352686471757 168.5987460827746,165.54733173710702 168.76982487738132,163.80632638528186 169.37267396325478,160.64593879136373 170.05698914182722,158.3181585554048 167.91443090423127,154.62765421732183 162.69245436321944,155.02510027898825 162.55396200565156,154.04094497929327 162.35844338318566,153.8043676120942 161.07942572806496,153.41637940913643 159.03462680170196,153.02838956518826 157.6008235704794,153.0 157.18534649780486,153.30282157588954 156.15887372998986,155.17650784957368 156.0774076372909,155.5266368994853 154.74951032656827,157.90180139270524 153.7719172143843,160.21066730119492 153.38087996951072,160.77841231330967 153.08760203581187,161.65841013978206 151.5397462748224,164.40243519707292 150.88801753337611,165.10262155444798 147.85747888556216,169.22793541850842 144.1263318406127,174.70598994054308 143.78417425137013,175.46286296031758 142.98580654308898,178.36730525427265 141.01432710012887,182.3217402044247 140.45221106061945,182.7096062310011 139.66198996157618,182.81366756913485 139.00211461086292,182.6055447749386 138.85547564399894,182.70014610352519 140.32186531231855,188.33820929101057 141.1854058947647,188.40442609733873 141.7638151528081,188.21523509547114 142.7902879206522,188.13955858556437 144.0611589664768,188.57469766579015 145.47866897919448,188.70713088966295 146.2933299060387,188.5274000395657 147.02652474015485,188.1584777188982 147.47458824992646,188.1584777188982 151.18944207628374,190.18280246468203 152.58251226117136,190.65576910573145 153.66601129388437,191.54493979715335 154.0896349758259,193.5313538628252 154.82282981000026,195.2623368058703 156.3299525246548,196.81357249364373 156.88392195486813,197.5608047265123 157.05500074950396,198.03373337862286 156.94909482900403,198.6958294013457 157.11202701437287,198.68637092033896 156.88392195486813,200.2942987036804 155.8167161407182,203.39657395922404 155.08352130654384,204.56935805135436 152.64768513530726,204.38965823417675 150.17111591776484,203.822182819953 149.3646016002167,203.7559771266533 148.7210194680083,203.42494794461527 147.01837813091697,203.10337559715845 146.90432560117915,203.65193951223773 147.14057726992178,203.87893051909487 147.890065322601,204.1437526516529 148.15890342846978,204.5126107786491 148.71287285874132,206.98108474668697 149.1772295870469,207.0 149.14464314992074,206.81084729160648" stroke="#ff9600" stroke-linecap="round" stroke-linejoin="round" stroke-width="0.5"><title>2016-10-14 21.3km</title></polyline><polyline fill="none" points="32.132213045842946,256.2224467974738 31.41273990261834,255.62966849765508 30.507596270530485,256.14161347196205 30.600431514903903,259.1054857510899 31.57520157995168,259.5096475527098 32.132213045842946,259.0246533158934 32.73564213386271,257.1924447561323 32.75885094481055,252.18074994522613 33.47832408803515,251.77657682768768 34.98689680790994,251.88435638675583 35.799205195507966,247.33063134370605 37.56307483720593,243.53130899739335 36.77397526067216,242.04928887440474 36.77397526067216,239.4355238423159 39.141273990273476,237.57623179684742 40.20887929969467,235.42051433882443 42.158419429906644,234.26180886788643 45.08272962528281,233.6420340682671 47.287566677317955,234.01928846893134 53.600363289471716,232.56416135537438 55.17856244253926,233.45340666398988 56.45504705165513,233.37256630617776 57.33698187256232,232.5372144805733 56.362211807398126,227.06694146094378 55.155353631591424,226.25851703062654 54.83043027645908,224.7494514119171 53.06656063476112,221.13843763939803 49.3995684850961,220.94980122201378 46.011082068202086,223.5368030903337 42.901101384311914,223.18648141794256 39.30373566772323,221.4618140384846 38.259339169366285,221.59655408686376 37.771954136900604,221.27317785425112 37.72553651465569,217.3926318899903 45.546905846800655,216.4494349406741 47.42681954370346,216.96145656352746 48.03024863160681,215.88351513905218 47.38040192157496,213.13474440592108 46.6377199672861,213.13474440592108 45.89503801288083,213.83541419787798 45.66294990212191,216.61112608769326 43.342068794649094,216.82671412834316 42.877892573247664,213.0 43.22602473932784,215.93741231583408 42.877892573247664,216.82671412834316 38.65388895769138,217.4195803242328 37.95762462541461,217.3926318899903 36.84360169398133,216.5841775701556 30.739684381405823,217.55432245417614 30.507596270530485,219.52154964892543 24.032337980810553,220.4377874035854 23.266447215457447,221.48876205369015 23.011150293634273,222.67447197603178 23.498535326099955,225.07282334854244 25.053525668219663,228.0909421540273 28.488429707242176,227.98315279607777 29.23111166153103,231.1629201915057 29.81133193837013,231.70185998853412 30.67005794821307,231.48628420292516 30.92535486991983,230.48924388433807 30.298716970952228,228.14483681635465 29.62566144973971,227.92925810042652 28.952605928643607,228.30652073671808 29.23111166153103,232.02522333408706 28.697309006820433,232.69889568720828 29.277529283659533,234.47738236718578 28.093879918917082,238.38462126569357 25.494493078556843,241.69899198276107 22.73264456074685,243.85465772714815 23.17361197108403,246.33365138439694 22.663018127554096,248.4892789577425 24.241217280505225,252.26158449388458 25.123152101412416,252.638812057412 27.095901042688638,251.88435638675583 29.672079071984626,252.12686023235437 29.997002427000552,257.51577661035117 30.600431514903903,259.1054857510899 31.319904658244923,259.5635357458377 31.992960179341026,259.13242989059654 32.109004234778695,256.5727242527937 31.296695847064257,255.71050198117155 30.437969837454148,256.2763356672076 30.414761026389897,258.889932535094 31.041398925241083,259.5635357458377 32.06258661265019,258.99770916529815 32.06258661265019,256.6266130504082 31.389531091437675,255.71050198117155 30.36834340414498,256.49189103543176 30.36834340414498,258.72826750655076 30.809310814598575,259.85992060939316 31.923333746148273,259.7790884072019 32.31788353447337,258.4857697766274 31.83049850189127,255.97994674611255 31.1342341696145,255.71050198117155 30.36834340414498,256.3571689511009 30.275508159887977,258.72826750655076 30.994981303228997,259.83297654479975 31.1342341696145,259.5635357458377 31.900124934967607,259.6443680146185 32.132213045842946,259.21326229255646 32.132213045842946,256.0338356659049 31.06460773642175,255.65661299493513 30.32192578201648,256.54577984975185 30.437969837454148,259.07854160881834 31.157442980678752,259.5635357458377 31.900124934967607,259.37492702153395 32.22504829009995,258.27021605026675 32.06258661265019,256.49189103543176 31.087816547486,255.71050198117155 30.229090537759475,256.51883544394514 29.81133193837013,259.3210387895815 29.439990961225703,259.6443680146185 29.81133193837013,259.48270345199853 30.089837671257555,260.6682412592345 29.81133193837013,261.6651666231337 30.066628860193305,264.30565329661476 31.157442980678752,264.92535549387685 31.69124563538935,266.0839252321748 33.33907122164965,267.0 36.495469527784735,261.98849295289256 36.936436938121915,261.6112788627506 37.14531623781659,261.88071755401324 36.79718407173641,260.8837930109876 36.98285456036683,261.2610081494204 37.88799819233827,260.9915688202891 37.58628364815377,261.8268298379262 38.14329511404503,261.6112788627506 37.02927218249533,261.8537736973376 37.30777791538276,261.4765594130149 38.398592035868205,261.6921104992216 41.41573747550137,261.12628851947375 42.622595651308075,260.15630513752694 43.80624501616694,260.15630513752694 43.89908026054036,260.5335213242797 44.43288291525096,260.12936110334704 45.546905846800655,262.8506945465924 45.89503801288083,262.60820063535357" stroke="#4dd2ff" stroke-linecap="round" stroke-linejoin="round" stroke-width="0.5"><title>2016-08-28 11.6km</title></polyline></svg>