<?xml version="1.0" encoding="utf-8" ?>
<svg baseProfile="full" height="200mm" version="1.1" viewBox="0,0,200,200" width="200mm" xmlns="http://www.w3.org/2000/svg" xmlns:ev="http://www.w3.org/2001/xml-events" xmlns:xlink="http://www.w3.org/1999/xlink"><defs /><rect fill="#1a1a1a" height="200" width="200" x="0" y="0" /><text alignment-baseline="middle" fill="#e1ed5e" style="dominant-baseline: central; font-size:9.0px; font-family:Arial;" text-anchor="middle" x="100.0" y="100.0">2019</text><line stroke="#e1ed5e" stroke-width="0.3" x1="100.0" x2="100.0" y1="15.0" y2="10.0" /><path d="M 100.0 14.0 a86.0,86.0 0 0,1 42.46469731375804,11.215312516191453" fill="none" id="id37" stroke="none" /><text fill="#e1ed5e" style="font-size:6.75px; font-family:Arial;" text-anchor="middle"><textPath startOffset="22.20632615414155" xlink:href="#id37">January</textPath></text><line stroke="#e1ed5e" stroke-width="0.3" x1="143.23703022742887" x2="145.7803849466894" y1="26.81831364943548" y2="22.513508569990506" /><path d="M 143.74570117128098 25.957352633546492 a86.0,86.0 0 0,1 28.547481713284135,27.462654790039103" fill="none" id="id38" stroke="none" /><text fill="#e1ed5e" style="font-size:6.75px; font-family:Arial;" text-anchor="middle"><textPath startOffset="19.985693538727396" xlink:href="#id38">February</textPath></text><path d="M 117.2510076193507 88.02491185347247 l 13.069735444958736 -9.072585060458453 a36.91005293141618,36.91005293141618 0 0,0 0.3578087498908754,0.5250401891841224 l -13.223968660518345 8.846266848003923" fill="#ff2e04" stroke="none" /><line stroke="#e1ed5e" stroke-width="0.3" x1="172.23445277983987" x2="176.4835382374775" y1="55.19839476539836" y2="52.563006222186495" /><path d="M 173.08426987136738 54.67131705675599 a86.0,86.0 0 0,1 12.851231095245387,41.99856678651699" fill="none" id="id39" stroke="none" /><text fill="#e1ed5e" style="font-size:6.75px; font-family:Arial;" text-anchor="middle"><textPath startOffset="22.20632615414155" xlink:href="#id39">March</textPath></text><path d="M 118.21658344932153 89.55222093294921 l 34.8925406095069 -20.011960881160917 a61.22397255984549,61.22397255984549 0 0,0 0.5164456623189709,0.9186992067098573 l -35.231843913118304 19.408378164516268" fill="#5dff2a" stroke="none" /><line stroke="#e1ed5e" stroke-width="0.3" x1="184.98032266829074" x2="189.97916517819016" y1="98.17113171792111" y2="98.06355123074" /><path d="M 185.9800911702706 98.14961562048488 a86.0,86.0 0 0,1 -9.607161424134198,41.387399972396054" fill="none" id="id40" stroke="none" /><text fill="#e1ed5e" style="font-size:6.75px; font-family:Arial;" text-anchor="middle"><textPath startOffset="21.466115282336823" xlink:href="#id40">April</textPath></text><path d="M 120.9904718944345 100.63252640178507 l 50.4893275521576 1.521444246023914 a71.51224593366265,71.51224593366265 0 0,0 -0.0476675675281664,1.2300881118270983 l -50.45565785177823 -2.3903096048650183" fill="#3aff90" stroke="none" /><path d="M 120.8583938346157 102.4346265915055 l 22.572724221967565 2.6347260996827013 a43.72596885550428,43.72596885550428 0 0,0 -0.09369536215319124,0.7468442240500811 l -22.524027350567525 -3.022888078020177" fill="#ffa30f" stroke="none" /><path d="M 120.76222939487914 103.15116336523771 l 47.21551682437354 7.166080484807031 a68.75623245721371,68.75623245721371 0 0,0 -0.18766602957975853,1.1685965453343705 l -47.08516904043249 -7.977756259834607" fill="#35ff69" stroke="none" /><path d="M 120.64145759157962 103.86396538481128 l 20.7285715841108 3.880272636863601 a42.08862716380557,42.08862716380557 0 0,0 -0.13943374346420176,0.7109696539483447 l -20.658707907670934 -4.236506017879891" fill="#ff880c" stroke="none" /><path d="M 120.5718875245553 104.21870165774334 l 30.15821048496498 6.184580409339204 a51.78581969828047,51.78581969828047 0 0,0 -0.18659161085300296,0.8716938863594325 l -30.047284835387533 -6.702788115114805" fill="#deff1b" stroke="none" /><path d="M 120.49622156327973 104.57218783832717 l 51.63609018244447 11.518703719221463 a73.90525819519969,73.90525819519969 0 0,0 -0.2876654276015236,1.2392551332036497 l -51.43016418891239 -12.405827509773678" fill="#3dffb0" stroke="none" /><path d="M 120.41448212921028 104.9243191809786 l 52.23179244976115 12.599193836478767 a74.72987835314808,74.72987835314808 0 0,0 -0.31240180016727864,1.2478899001746766 l -52.00717933529881 -13.49641157605084" fill="#3fffbb" stroke="none" /><path d="M 120.32669344350535 105.2749913415812 l 52.98177321056885 13.749328966077703 a75.73675492348423,75.73675492348423 0 0,0 -0.3383338414763538,1.2590660874118944 l -52.73725129275072 -14.659285986665145" fill="#40ffc8" stroke="none" /><path d="M 120.13307415673323 105.97154293290107 l 37.44565517859931 11.10651735591172 a60.058057037335196,60.058057037335196 0 0,0 -0.3025016442785578,0.988592876130328 l -37.248926761814616 -11.749437204594106" fill="#6cff28" stroke="none" /><path d="M 120.02730092923936 106.31721596034902 l 14.927985998055954 4.708737924095667 a36.65301820084457,36.65301820084457 0 0,0 -0.1949726741274703,0.600064189361155 l -14.844721072912238 -4.965001013434617" fill="#ff2a04" stroke="none" /><path d="M 119.9155931802556 106.66101706037122 l 12.63867969836523 4.227163124362322 a34.32685756650224,34.32685756650224 0 0,0 -0.19224539022506665,0.5587550920664789 l -12.564043477196932 -4.444090919518101" fill="#ff0000" stroke="none" /><path d="M 119.12269723197855 108.67885076344098 l 22.69803755682907 10.30152170423273 a45.92633664127164,45.92633664127164 0 0,0 -0.3329121043981175,0.7170630556223773 l -22.517350835591124 -10.690704827133938" fill="#ffc612" stroke="none" /><path d="M 118.81262510543309 109.33194174019688 l 18.224545104439443 9.040226560784584 a41.34354296906177,41.34354296906177 0 0,0 -0.3217341327501247,0.6348119668410788 l -18.06623230190305 -9.352592739328358" fill="#ff7b0b" stroke="none" /><line stroke="#e1ed5e" stroke-width="0.3" x1="174.80103733775053" x2="179.2010983576182" y1="140.37084112569926" y2="142.7455964860345" /><path d="M 175.68104954172406 140.8457921977663 a86.0,86.0 0 0,1 -30.038265399797805,32.042727171017184" fill="none" id="id41" stroke="none" /><text fill="#e1ed5e" style="font-size:6.75px; font-family:Arial;" text-anchor="middle"><textPath startOffset="22.206326154141568" xlink:href="#id41">May</textPath></text><path d="M 117.75023020441432 111.22182372390056 l 32.22264783290064 20.371390665581963 a59.12207485188728,59.12207485188728 0 0,0 -0.5512292725265489,0.8555200721578861 l -31.86721369699704 -20.9230323376613" fill="#78ff26" stroke="none" /><path d="M 117.14729908036423 112.12312394758627 l 51.44189724109271 36.36937184275882 a84.0,84.0 0 0,0 -0.8448808304975888,1.1734655781954753 l -50.80823661821952 -37.24947102640542" fill="#4dd2ff" stroke="none" /><path d="M 116.498646956653 112.99209946851258 l 43.19644701387662 34.015670361642094 a75.98180485191939,75.98180485191939 0 0,0 -0.8180059565125031,1.0205882049150246 l -42.604523145309265 -34.75418640013537" fill="#41ffcb" stroke="none" /><path d="M 116.0416608686014 113.55231037782055 l 24.276451201213195 20.5092230939015 a52.780093059025305,52.780093059025305 0 0,0 -0.5922868702338411,0.6889634388506913 l -23.919821821408576 -20.92406363191372" fill="#d0ff1d" stroke="none" /><path d="M 112.34349029814194 116.9893568818739 l 32.29292069886725 44.44739220913021 a75.93999819307949,75.93999819307949 0 0,0 -1.064146009115637,0.759239922675079 l -31.52304736190273 -44.9966763936495" fill="#41ffcb" stroke="none" /><line stroke="#e1ed5e" stroke-width="0.3" x1="143.8653032363475" x2="146.44561519142675" y1="172.8068346515853" y2="177.08958963109032" /><path d="M 144.38136562736335 173.6633856474863 a86.0,86.0 0 0,1 -40.68145358897372,12.25698825130547" fill="none" id="id42" stroke="none" /><text fill="#e1ed5e" style="font-size:6.75px; font-family:Arial;" text-anchor="middle"><textPath startOffset="21.466115282336833" xlink:href="#id42">June</textPath></text><path d="M 110.8373102113329 117.98757091392108 l 17.02264520817836 28.253877747674732 a53.98563411038307,53.98563411038307 0 0,0 -0.8000982780027294,0.4727121655164045 l -16.533779059147246 -28.542708485484884" fill="#beff1e" stroke="none" /><path d="M 107.59598834532513 119.57807347666477 l 22.10929008351452 56.98498814026494 a82.12372355594127,82.12372355594127 0 0,0 -1.3223084055387924,0.499983893542209 l -21.125111457215453 -57.35712028391378" fill="#4ae7ff" stroke="none" /><path d="M 106.91757812671514 119.82793768551818 l 16.874389489912247 48.36726628283457 a72.2263356910475,72.2263356910475 0 0,0 -1.1773933707657993,0.3994357568786546 l -16.03932638620922 -48.650565026611346" fill="#3bff99" stroke="none" /><path d="M 106.57524785965236 119.94407469862006 l 9.948749383347185 30.176596395229573 a52.77427551169709,52.77427551169709 0 0,0 -0.8651931708079619,0.2770075313928918 l -9.427834867448281 -30.34337677328217" fill="#d0ff1d" stroke="none" /><path d="M 105.18746579009965 120.34920634021253 l 13.020292613200278 51.07554087424016 a73.7090020331398,73.7090020331398 0 0,0 -1.2321572880280809,0.3028342831594243 l -12.139182040428986 -51.292096415713615" fill="#3dffad" stroke="none" /><path d="M 104.83641907484287 120.43548508189849 l 10.960672696579694 46.312501028625974 a68.5918490656544,68.5918490656544 0 0,0 -1.151297367215677,0.26203153247586913 l -10.161855179971155 -46.49430929467953" fill="#35ff66" stroke="none" /><line stroke="#e1ed5e" stroke-width="0.3" x1="102.19456741930631" x2="102.32365962044197" y1="184.97166512339345" y2="189.96999836594603" /><path d="M 102.22038585953345 185.97133177190398 a86.0,86.0 0 0,1 -42.740103519485714,-10.115201625700543" fill="none" id="id43" stroke="none" /><text fill="#e1ed5e" style="font-size:6.75px; font-family:Arial;" text-anchor="middle"><textPath startOffset="22.20632615414155" xlink:href="#id43">July</textPath></text><path d="M 93.08242187328487 119.8279376855182 l -15.190827300258041 43.541651656634606 a67.11547097291728,67.11547097291728 0 0,0 -1.0875277119622437,-0.38994874512699873 l 15.938074572850011 -43.27371537046765" fill="#33ff51" stroke="none" /><path d="M 92.7421414339146 119.70592522655815 l -8.291204430412078 22.51157873305485 a44.98989887351367,44.98989887351367 0 0,0 -0.7244011701961129,-0.2739065380240159 l 8.677475821368473 -22.365523944924202" fill="#ffb711" stroke="none" /><line stroke="#e1ed5e" stroke-width="0.3" x1="58.666819895761336" x2="56.23545636021788" y1="174.27360380694188" y2="178.64263932499728" /><path d="M 58.180547188652646 175.14741091055294 a86.0,86.0 0 0,1 -31.652253787137756,-30.449443065178592" fill="none" id="id44" stroke="none" /><text fill="#e1ed5e" style="font-size:6.75px; font-family:Arial;" text-anchor="middle"><textPath startOffset="22.20632615414155" xlink:href="#id44">August</textPath></text><line stroke="#e1ed5e" stroke-width="0.3" x1="26.63291911575756" x2="22.317208475507996" y1="142.92168965132927" y2="145.44649492493687" /><path d="M 25.769776987707644 143.4266507060508 a86.0,86.0 0 0,1 -11.730757126820373,-40.83630448921669" fill="none" id="id45" stroke="none" /><text fill="#e1ed5e" style="font-size:6.75px; font-family:Arial;" text-anchor="middle"><textPath startOffset="21.46611528233685" xlink:href="#id45">September</textPath></text><path d="M 81.87401531095188 110.60418214915194 l -45.54687964018708 26.64613351030075 a73.76869030027618,73.76869030027618 0 0,0 -0.6317691284265792,-1.1015427273900675 l 45.99880076476604 -25.85817093705238" fill="#3dffae" stroke="none" /><line stroke="#e1ed5e" stroke-width="0.3" x1="15.007084014347285" x2="10.007500721073583" y1="101.09737516637583" y2="101.16192664675087" /><path d="M 14.007167355692545 101.11028546245083 a86.0,86.0 0 0,1 10.666146001902534,-42.60595125391555" fill="none" id="id46" stroke="none" /><text fill="#e1ed5e" style="font-size:6.75px; font-family:Arial;" text-anchor="middle"><textPath startOffset="22.20632615414155" xlink:href="#id46">October</textPath></text><line stroke="#e1ed5e" stroke-width="0.3" x1="26.266209847984243" x2="21.928928074336255" y1="57.711370442889674" y2="55.22380399835377" /><path d="M 25.398753493254645 57.213857153982495 a86.0,86.0 0 0,1 29.58750427330803,-30.492523968695096" fill="none" id="id47" stroke="none" /><text fill="#e1ed5e" style="font-size:6.75px; font-family:Arial;" text-anchor="middle"><textPath startOffset="21.46611528233685" xlink:href="#id47">November</textPath></text><path d="M 86.65592168130627 83.78471172551755 l -30.557058710137955 -37.131940023990815 a69.08861410937176,69.08861410937176 0 0,0 0.9247892678111002,-0.747781939787205 l 29.913366043762355 37.65242806104215" fill="#36ff6d" stroke="none" /><path d="M 89.00827224532344 82.1063720568725 l -24.439356165800188 -39.78525998465978 a67.69206615524533,67.69206615524533 0 0,0 0.9980967379889697,-0.6013421168577364 l 23.75089736159357 40.200048710976134" fill="#34ff59" stroke="none" /><line stroke="#e1ed5e" stroke-width="0.3" x1="56.762969772571076" x2="54.21961505331055" y1="26.818313649435495" y2="22.513508569990535" /><path d="M 56.25429882871897 25.957352633546506 a86.0,86.0 0 0,1 42.265352541879196,-11.944610805530505" fill="none" id="id48" stroke="none" /><text fill="#e1ed5e" style="font-size:6.75px; font-family:Arial;" text-anchor="middle"><textPath startOffset="22.20632615414155" xlink:href="#id48">December</textPath></text><path d="M 96.40284397218896 79.31037775812273 l -8.784105834750813 -50.52319945216775 a72.28112906517978,72.28112906517978 0 0,0 1.2276460802312066,-0.2025721221156655 l 7.913130548380721 50.666917837223046" fill="#3bff9a" stroke="none" /><path d="M 99.27714615592234 79.0124445844662 l -1.7385040328289685 -50.47624776165248 a71.50617768518906,71.50617768518906 0 0,0 1.2304965730690298,-0.031780096163868295 l 0.8693808245650596 50.49869464995871" fill="#3aff8f" stroke="none" /></svg>